<svg xmlns="http://www.w3.org/2000/svg" width="114" height="43" viewBox="0 0 114 43"><path d="M35.22.23L32.76 17.2h12.72l.42-3.04h-8.34l.57-4.18h6.01l.43-3.04h-5.96l.53-3.68H46l.43-3.03zm34.94 0h-4.44L59.91 11 57.23.23h-4.57L47.07 17.2h4.27L55.02 6l2.81 11.2h2.6l5.89-10.86.48 10.86h4.16zm9.7.34C79.52.19 78.97 0 78.2 0a2.5 2.5 0 0 0-1.59.45 2.2 2.2 0 0 0-.77.98c-.14.4-.25 1.14-.33 2.21l-.22 7.87h2.58l1.94-6.77c.18-.64.31-1.18.41-1.62.09-.44.14-.87.14-1.28 0-.47-.17-.89-.5-1.27zM78.3 13.59c-.23-.4-.54-.71-.93-.93a2.52 2.52 0 0 0-2.56 0 2.58 2.58 0 0 0-.93 3.48c.23.4.54.71.93.93a2.52 2.52 0 0 0 3.49-.93c.23-.39.34-.81.34-1.27 0-.46-.11-.89-.34-1.28zm-72.15 19l-4.38-5.41H0v13.16h1.88V30.1l4.09 5.09h.35l4.05-5.09v10.24h1.89V27.18h-1.75zm7.49 7.75h1.93l1.66-3.9h5.59l1.75 3.9h1.93l-5.88-13.23h-1.33zm4.32-5.58L19.93 30l2.12 4.76zm11.93 5.58v-5.73h.49c.62 0 1.06.07 1.32.21.26.14.55.37.87.69.33.33.68.76 1.07 1.29l.63 1.03.58.96.37.52.12.16.57.87h2.24l-.7-.95c-.27-.37-.64-.93-1.1-1.68a23.56 23.56 0 0 0-1.69-2.5 6.1 6.1 0 0 0-1.24-1.13 3.35 3.35 0 0 0 1.65-1.25c.38-.56.58-1.22.58-1.98a3.3 3.3 0 0 0-1.18-2.68 4.73 4.73 0 0 0-3.16-.99h-3.3v13.16zm2.55-11.35c.4.14.71.38.93.71.22.34.33.71.33 1.13 0 .42-.1.79-.3 1.12-.2.33-.47.58-.83.74-.35.16-1.01.25-1.96.25h-.72v-4.16h.57c.92 0 1.58.07 1.98.21zm6.04-.15h4.51v11.5h1.89v-11.5h4.59v-1.68H38.48zm12.79 11.5h1.88V27.18h-1.88zm15.25-2.95l-8.87-10.21h-1.53v13.16h1.77V30.21l8.8 10.13h1.62V27.18h-1.79zm4.62 2.95h1.88V27.18h-1.88zm16.75 1.08c-.68 0-1.8-.3-3.35-.9l-.5-.18a6.62 6.62 0 0 0 3.94-2.33 6.51 6.51 0 0 0 1.53-4.28c0-1.94-.67-3.54-2.02-4.82a7.08 7.08 0 0 0-5.07-1.92c-2.05 0-3.74.65-5.07 1.93a6.5 6.5 0 0 0-2.01 4.88 6.4 6.4 0 0 0 1.56 4.26 6.57 6.57 0 0 0 3.96 2.28c1.1.76 1.99 1.29 2.65 1.61A11.44 11.44 0 0 0 87.32 43l1.89-1.84c-.5.17-.94.26-1.32.26zM86.11 30.2a4.76 4.76 0 0 1 1.46 3.56c0 1.41-.5 2.59-1.49 3.55a5.05 5.05 0 0 1-3.66 1.44 5.08 5.08 0 0 1-3.66-1.4 4.69 4.69 0 0 1-1.46-3.53c0-1.45.48-2.65 1.45-3.61a5.03 5.03 0 0 1 3.67-1.43c1.49 0 2.72.47 3.69 1.42zm14.86 4.45c0 1.03-.08 1.77-.25 2.19-.16.43-.43.8-.8 1.11-.7.59-1.61.88-2.73.88a4.5 4.5 0 0 1-2.04-.44 3 3 0 0 1-1.29-1.16 5.56 5.56 0 0 1-.42-2.58v-7.47h-1.9v7.45c0 1.06.07 1.84.22 2.33a4.39 4.39 0 0 0 1.33 2.19 6.1 6.1 0 0 0 4.12 1.34c1.68 0 3.05-.45 4.09-1.35.31-.27.58-.58.79-.92.22-.34.4-.77.55-1.28.15-.52.22-1.28.22-2.29v-7.47h-1.89zm4.5-7.47h7.46v1.68h-5.58v4.01h5.39v1.68h-5.39v4.09h5.75v1.68h-7.63z"/></svg>