<svg xmlns="http://www.w3.org/2000/svg" width="521" height="597" viewBox="0 0 521 597">
  <g fill="#EAEAEA" fill-rule="evenodd">
    <path d="M347.674415 319.482441C347.473347 324.701452 348.024064 329.901117 348.117844 335.112389 348.146016 336.677821 348.035255 337.393602 346.011846 337.116962 339.166292 336.17987 332.280215 335.542244 325.411506 334.770749 324.640812 334.684081 324.213978 335.150306 323.784442 335.617305 321.526775 338.072627 319.276055 340.521371 317.797187 343.583366 316.59387 346.07351 315.232709 348.487046 313.948348 350.938112 312.559787 353.588436 309.787295 354.479874 307.49914 355.945483 303.609392 358.437562 299.681052 360.887467 295.630374 363.099811 293.288189 364.378931 292.769891 366.671364 291.885735 368.713468 288.89944 375.611275 286.094916 382.588785 283.242538 389.545015 282.753569 390.737854 282.335226 391.792954 280.812748 390.587347 280.326481 390.201986 279.709772 390.523894 279.149793 390.69452 278.108565 391.011399 277.062706 391.33292 275.997164 391.546106 273.815139 391.983313 273.166784 391.539142 273.235092 389.30281 273.321154 386.473734 273.044445 383.773886 271.575611 381.29651 271.176178 380.623289 271.495338 380.128433 271.825691 379.529885 272.817907 377.731534 273.864924 375.946725 274.278636 373.889918 274.644108 372.071448 274.047467 370.695988 272.345533 369.938421 271.599924 369.607227 270.796041 369.221092 270.691455 368.462364 270.453724 366.736365 269.26623 366.314248 267.89079 366.034126 265.571761 365.562871 263.2454 365.203433 260.865009 365.531145 259.680988 365.694033 258.989795 365.144623 258.972814 363.933212 258.933064 361.097559 258.946185 358.260745 258.917627 355.424704 258.906049 354.262818 259.660148 353.613198 260.550865 353.249504 262.797726 352.332144 263.296342 350.454476 263.965538 348.343116 265.002521 345.071417 264.352235 342.561154 262.004648 340.217261 259.798695 338.015364 260.504168 335.173134 260.675133 332.523196 260.794384 330.669517 260.355587 329.872485 258.5043 329.709597 256.782298 329.557542 255.152919 329.455785 253.760112 331.043271 252.463015 332.521649 250.764941 333.64794 249.238604 334.923191 247.606909 336.28627 245.607813 336.412789 243.739932 335.293462 243.367127 335.070216 243.178024 334.758367 243.239 334.338572 243.803609 330.448979 243.701725 326.51025 244.076459 322.616014 244.34159 319.861612 244.290262 317.103727 244.561954 314.347003 245.091058 308.978646 245.150491 303.565021 245.471967 298.174223 245.647178 295.229075 246.170107 292.296694 245.624794 289.341486 245.478142 288.546002 245.996441 288.326238 246.613536 288.221773 247.748544 288.029866 248.880851 287.788822 250.025121 287.688999 255.223158 287.235156 259.520443 284.367776 264.16043 282.425494 266.290741 281.533283 268.365093 280.508749 270.480353 279.580555 271.599924 279.089181 272.724512 279.313202 273.867625 279.624663 276.835009 280.433302 279.822462 281.166494 282.794864 281.955401 284.237841 282.33844 285.238161 281.978228 285.913145 280.545892 286.678436 278.922424 287.595782 277.370533 288.470676 275.800458 288.821483 275.170571 289.064616 274.539523 289.075036 273.797819 289.1912 265.757471 290.082303 257.741111 289.837626 249.692251 289.794402 248.272297 290.379466 247.352228 291.443849 246.630257 293.460312 245.262535 295.531963 243.974129 297.519095 242.565395 298.666453 241.751726 299.135353 241.755595 299.583799 243.29317 301.097015 248.476971 302.809368 253.602737 304.393594 258.766419 304.757136 259.952294 305.449873 260.706766 306.460613 261.407071 313.370231 266.192743 320.364752 270.871629 327.049761 275.95793 330.267612 278.406288 331.985368 282.324124 334.259629 285.659664 338.273259 291.545318 342.048772 297.59889 346.194003 303.388203 347.817979 305.656649 347.357569 308.065542 347.599159 310.400922 347.909058 313.39869 347.674415 316.45256 347.674415 319.482441M420.056443 289.853869C419.002865 291.224299 417.886381 291.175936 416.869853 291.413498 416.349239 291.534987 415.584719 291.44329 415.425718 292.131987 415.296819 292.69107 415.893074 292.997502 416.247354 293.348815 417.665246 294.754067 419.055351 296.191432 420.533833 297.529749 422.364666 299.187653 420.762301 300.786359 420.439667 302.330124 420.169519 303.621239 418.936486 303.123674 417.996756 302.992899 417.427516 302.913583 416.840908 302.961172 416.262405 302.949178 415.467012 302.932928 415.133572 303.259479 415.595139 303.996153 416.2269 305.003663 415.628715 305.485751 414.894298 306.025489 411.646731 308.411554 411.654836 308.422775 412.718833 312.201711 414.049506 316.928187 414.05761 317.082563 418.834601 316.836489 422.154722 316.665089 425.168032 317.143695 427.976801 318.97532 430.395399 320.55236 432.863781 320.746201 435.278133 318.873176 435.577998 318.640644 436.006761 318.568292 436.292733 318.324153 437.886221 316.964556 439.319936 316.66741 440.806136 318.570614 441.611178 319.601338 442.849614 319.776608 444.155587 319.445027 444.788506 319.28446 445.799632 318.862343 445.997612 319.722441 446.195206 320.581378 445.066759 320.562806 444.459311 320.810428 443.32932 321.271236 442.208205 321.822194 441.027658 322.072911 439.272467 322.446277 438.818232 323.583789 438.418413 325.161989 437.296912 329.586289 440.412492 332.330245 442.26841 335.576021 442.519261 336.014776 443.139444 336.202813 443.650024 336.140908 444.96526 335.980728 445.599336 336.73636 446.22608 337.727233 447.146513 339.181236 447.271167 340.353569 445.465034 341.142476 443.882352 341.833495 443.750751 343.163299 443.758856 344.673791 443.783169 348.942167 443.735314 348.981631 447.773257 350.158607 448.810626 350.46117 449.246722 351.013675 449.380639 352.017703 449.557393 353.342865 450.268268 354.041235 451.700439 354.081474 452.778716 354.11204 453.861239 354.365852 454.920991 354.610378 457.141609 355.122645 459.315144 355.571459 461.274876 353.829983 461.810541 353.353699 462.566184 353.26471 463.291339 353.323133 465.320537 353.486795 466.708327 352.573304 467.725241 350.853882 468.157479 350.122238 468.498637 349.016453 469.588878 349.136782 470.585339 349.246664 470.53594 350.369473 470.933444 351.06939 471.834581 352.656876 471.614603 354.449037 471.969269 356.132863 472.22591 357.35356 471.410834 357.840291 470.46107 358.250801 464.212544 360.953745 457.967876 363.666748 451.72591 366.385942 446.190189 368.796769 440.646363 371.188638 435.134183 373.651699 432.689728 374.744329 430.919486 376.787206 428.922705 378.483027 423.682989 382.932863 418.52123 387.475557 413.364487 392.02212 412.239513 393.013767 411.764824 392.384653 411.44412 391.397263 410.748296 389.25611 410.042823 387.111089 409.511403 384.926216 409.199575 383.642453 408.590584 382.77926 407.494554 382.053419 401.279989 377.937485 395.112507 373.749973 388.913379 369.610825 387.198324 368.465576 385.294551 369.167815 383.481857 369.248292 381.373158 369.341924 379.268704 369.596509 377.169653 369.844518 372.969235 370.340922 370.540603 367.285504 368.193787 364.797295 366.64005 363.149451 367.391061 360.227517 367.090811 357.882464 366.724181 355.016245 366.230196 352.158538 366.189674 349.25208 366.173465 348.10567 365.359933 347.450634 364.454551 346.863694 360.62578 344.380514 356.845636 341.820727 352.987148 339.385137 351.711663 338.57998 351.163262 337.688543 351.152842 336.118467 351.107689 329.228786 351.015067 322.335235 350.713659 315.453291 350.601354 312.88267 350.563533 310.310115 350.44544 307.740655 350.388323 306.492874 350.903534 305.895101 352.159337 305.647866 360.588731 303.988415 369.006161 302.267832 377.428223 300.572012 378.969997 300.261324 380.25706 299.625633 381.420241 298.457943 386.370899 293.488489 391.440807 288.638589 396.42041 283.698153 397.303794 282.821418 398.068313 282.720048 399.149678 283.260559 402.481376 284.926588 405.91959 286.390263 409.180664 288.181263 411.591158 289.504878 414.032139 290.108842 416.740567 289.867798 417.716574 289.780743 418.70686 289.853869 420.056443 289.853869"/>
    <path d="M480.640986 368.100837C478.168744 369.077781 475.70345 370.073297 473.221946 371.02664 470.72269 371.986947 469.297079 374.407834 469.723141 377.052355 469.980554 378.652222 471.364484 379.846609 473.099993 379.954943 474.677273 380.053218 476.13723 379.529344 477.607994 379.074339 478.030583 378.943951 478.49601 378.649127 478.818644 379.150173 479.089178 379.570356 478.893127 380.00795 478.619506 380.403757 478.144045 381.091681 477.746155 381.841123 477.214735 382.480683 476.532418 383.301316 476.694121 383.972215 477.342863 384.68877 478.049493 385.468778 478.832537 385.656815 479.744094 385.09425 480.236535 384.790527 480.688455 384.414839 481.197105 384.145163 482.844623 383.272298 484.449303 384.08171 484.731801 385.885865 484.880768 386.838047 485.054049 387.786747 485.239679 388.732352 485.541087 390.267219 486.18404 390.356594 487.251897 389.271316 489.87079 386.608611 492.530592 383.986918 495.183061 381.358261 496.292598 380.258666 499.854694 380.908286 500.462141 382.32205 500.787091 383.078456 500.20743 383.50599 499.78021 383.979953 497.618253 386.376465 497.619411 386.377239 499.125294 389.066254 500.202799 390.990351 499.921459 391.72509 497.820478 392.500068 495.474049 393.365583 493.138039 394.260115 490.780804 395.095451 489.535421 395.536914 488.86198 396.264302 488.973513 397.672263 489.059188 398.76141 488.929903 399.867582 489.00979 400.957504 489.119778 402.457935 488.840754 403.734347 487.619684 404.762363 486.990239 405.292428 486.376617 406.032197 486.874075 406.950331 487.385813 407.894388 488.292353 408.022455 489.222049 407.656826 490.778102 407.045124 492.002259 407.679654 493.074747 408.682134 495.613754 411.054658 498.104906 413.478254 500.202413 416.270186 501.072676 417.428204 501.235151 418.408243 499.475329 418.778515 495.132504 419.692006 491.280578 421.655567 487.700343 424.224254 487.183974 424.594912 486.316027 424.865361 486.456504 425.535874 486.627083 426.348769 487.542499 425.974628 488.123704 425.984301 490.191881 426.019123 492.216448 426.272935 494.185442 426.921007 495.897795 427.485119 497.504019 427.170563 498.975555 426.225732 500.179258 425.451915 501.229362 425.561797 502.329637 426.419573 503.411387 427.263808 503.776473 428.186198 503.424895 429.605766 502.943259 431.548434 502.380579 433.450863 501.663529 435.314215 501.259078 436.364285 500.611495 436.654854 499.421685 436.560061 496.950987 436.364285 494.565579 435.193887 492.005733 435.929787 490.939419 436.236219 489.742663 436.380149 489.444728 437.640697 489.154126 438.871453 490.04986 439.77798 490.896967 440.387361 492.105687 441.256358 491.991067 441.758952 491.176378 442.961464 490.014355 444.677404 489.111674 446.598018 488.090514 448.42384 487.231057 449.95948 488.09939 451.558574 489.482163 452.653138 491.00657 453.860293 492.616653 453.647106 494.139131 452.674805 494.946102 452.159443 495.564355 451.404584 496.092688 450.569248 497.241204 448.754647 499.614648 447.937496 501.763484 448.536817 503.588527 449.045215 505.248781 451.325655 505.189348 453.380526 505.078201 457.240327 504.866714 461.096645 504.777951 464.956445 504.68996 468.784519 507.465153 471.22127 509.394397 474.041447 509.867156 474.733239 510.580733 474.183055 511.043458 473.719926 511.783278 472.980156 512.584075 472.477949 513.603691 473.079592 514.551525 473.638675 514.34737 474.522374 514.272887 475.471848 514.040559 478.423574 515.277838 480.95976 516.701133 483.450677 518.032191 485.779093 519.891196 487.845572 520.391356 490.603844 520.494013 491.170665 520.541867 491.748707 520.593195 492.323266 520.738304 493.938609 520.157485 494.443525 518.442044 494.203642 513.556222 493.519974 508.644929 493.011189 503.735565 492.514399 502.629887 492.402582 501.784324 492.016447 501.04296 491.230249 497.027015 486.971159 492.992545 482.72948 488.979687 478.467294 488.084725 477.516273 487.158117 476.796236 485.791553 476.484001 482.417789 475.71444 479.099984 474.700352 475.745901 473.83948 474.63019 473.553168 473.766873 472.968936 473.035158 472.116963 470.10598 468.703655 467.140139 465.3213 464.248396 461.876266 461.823238 458.986058 461.683147 459.180287 459.198941 460.530598 457.571106 461.415071 455.757254 461.947844 454.068442 462.727852 452.743944 463.339167 452.140356 463.124046 451.83123 461.570995 450.915041 456.972199 449.864165 452.399713 448.834515 447.824132 448.110904 444.6066 446.012238 442.076604 444.421452 439.310594 441.151887 433.625359 437.695921 428.047298 434.349943 422.405396 433.66531 421.250474 432.823992 420.425585 431.528824 419.944657 427.497056 418.446934 423.506196 416.838555 419.486006 415.308331 418.312791 414.861839 417.694924 414.148766 417.355695 412.869259 416.053581 407.958615 414.643407 403.074668 413.165697 398.213935 412.750441 396.848921 413.186537 396.022484 414.157913 395.19953 419.695564 390.509036 425.436212 386.030182 430.680173 381.028615 435.90754 376.04291 442.582901 374.046462 448.817148 371.132653 456.032033 367.760357 463.382764 364.680565 470.667502 361.458003 471.468684 361.103594 472.191524 360.697727 472.795498 361.761339 473.111571 362.318487 473.64878 362.220213 474.162061 362.016312 474.755615 361.780298 475.502382 361.37946 475.749761 362.30069 476.042678 363.391772 475.002608 363.325611 474.385127 363.448648 472.564328 363.811955 470.726549 364.089368 468.896874 364.409342 468.537963 364.472021 468.035487 364.367556 467.919324 364.833007 467.773058 365.418399 468.312968 365.594056 468.705841 365.750754 471.150681 366.727698 473.590891 367.720119 476.064676 368.618521 477.666655 369.200431 478.948315 367.839287 480.436445 367.649314 480.504368 367.799822 480.572677 367.950329 480.640986 368.100837M151.792115 95.6746861C150.816494 91.9073568 153.561585 88.6650626 155.21605 85.0935091 155.529808 84.4171929 156.170831 84.1111482 156.865111 83.8557885 159.638375 82.8355104 162.380379 81.7274041 165.164834 80.7384657 166.635598 80.2157522 166.981388 79.6694372 166.236165 78.0606712 164.363266 74.0163154 161.677608 70.1971404 162.077813 65.3824495 162.136474 64.6778889 162.104056 63.9918999 162.413954 63.3128753 166.982159 53.2973588 171.534156 43.2741041 176.082293 33.2493017 176.625677 32.0514327 177.27326 31.842502 178.654489 32.2313452 182.259037 33.2462065 184.373525 36.05555 186.782861 38.5035208 188.069538 39.8104981 189.400597 40.708513 191.281985 40.7375312 192.32167 40.7537813 193.303079 41.0520879 194.005851 41.9539719 194.512571 42.6039784 195.257022 42.8105876 196.052802 42.8844871 198.80291 43.1398468 201.547615 43.5043147 204.303126 43.6316076 205.781994 43.6997036 206.435367 44.2692331 206.858342 45.6655863 208.90838 52.4322311 214.343375 56.3454249 221.291971 56.1786673 223.910093 56.1159881 226.246874 55.3530043 227.934528 53.2296498 228.897799 52.0170782 229.837529 52.1401151 230.888019 53.0327133 232.211359 54.1574566 233.491862 55.3398494 234.880037 56.3771514 235.83559 57.0913847 235.910845 57.6543367 235.150185 58.5732447 233.223257 60.9012739 231.430631 63.3426673 229.477074 65.6467081 228.027537 67.3568442 227.09321 69.2430237 226.539406 71.4162894 222.5169 87.1975182 218.448855 102.96714 214.379652 118.736374 211.629544 129.393385 208.947745 140.069742 206.037477 150.683032 205.0634 154.234079 202.361919 157.000089 200.781938 160.293455 199.587111 162.784373 198.02141 163.490481 195.294071 162.947648 191.274267 162.147521 187.167629 161.768351 183.087234 161.302126 181.695585 161.143107 181.320465 160.147591 180.915629 159.145497 178.383183 152.880286 175.874279 146.605402 173.363831 140.330905 169.492222 130.652773 165.640295 120.966516 161.747846 111.296895 160.681533 108.648506 157.986998 107.48778 156.231421 105.46154 156.190127 105.41395 156.128379 105.385319 156.078594 105.344306 151.79829 101.816087 151.79829 101.816087 151.792115 95.6746861M374.040604 194.306708C372.606889 195.94101 370.561482 196.651374 368.766154 197.707635 358.515962 203.736058 348.212511 209.672397 337.92527 215.637367 335.916139 216.802349 333.59055 216.77217 331.414699 217.250389 326.590625 218.310906 321.699014 219.058026 316.858731 220.05006 315.2911 220.371581 314.789396 219.557138 314.346353 218.384418 313.027259 214.891407 311.663782 211.41542 310.382894 207.908481 310.055629 207.012787 309.538102 206.323316 308.836489 205.745662 300.398605 198.800652 291.971526 191.841713 283.503539 184.93346 280.447392 182.440221 276.54761 181.690779 273.04842 180.112192 271.995614 179.637455 270.882218 179.299684 269.815519 178.853191 268.30732 178.220982 268.266798 177.780293 269.55772 176.800254 278.26035 170.191468 286.898916 163.494853 295.695325 157.013747 298.932472 154.628455 300.644825 151.320774 302.308938 147.922942 304.545765 143.354712 306.534827 138.671957 308.065023 133.807742 308.123298 133.623573 308.212833 133.449078 308.26609 133.264135 309.153334 130.181247 309.151405 130.182408 311.727846 132.045373 312.09216 132.309245 312.444125 132.61026 312.846645 132.797523 315.944087 134.239919 317.365452 136.57143 316.87494 140.043548 316.697028 141.302936 317.33342 142.209849 318.449518 142.895838 320.256037 144.006266 321.985757 145.2436 323.74172 146.436052 325.143789 147.388621 325.687173 148.613574 324.920724 150.249424 323.598156 153.072696 323.926579 155.562066 326.34865 157.68426 329.43953 160.391459 330.035786 164.008281 329.826228 167.843319 329.739395 169.426162 330.349158 170.32263 331.74428 171.014422 333.929393 172.098153 336.055073 173.316529 338.14023 174.585976 339.436556 175.375269 340.095331 175.459615 340.465434 173.674419 341.419057 169.075623 342.567187 164.517453 343.585259 159.931425 343.851934 158.730074 344.438927 157.827803 345.380201 157.066367 351.826322 151.850838 358.287879 146.653108 364.664147 141.353234 365.830416 140.383641 366.770145 140.375903 367.961885 141.018558 368.809764 141.475884 369.713602 141.830292 370.560324 142.290713 371.664072 142.890809 372.687547 143.131079 373.735336 142.144075 374.507188 141.416687 375.291004 141.583831 375.846737 142.449733 378.489172 146.564893 381.784593 147.356895 385.984239 144.710827 387.323016 143.867366 388.916119 143.388373 390.44207 142.894678 391.992334 142.392857 392.587818 141.392312 392.489407 139.843129 392.468953 139.523156 392.512948 139.199313 392.522982 138.877019 392.609816 136.05452 392.620236 136.098628 395.427847 136.478959 397.462448 136.754438 399.529467 136.78423 401.567928 137.037268 404.104233 137.352212 405.761013 136.15086 406.924194 134.080126 407.390779 133.249433 407.940723 132.754577 408.890487 132.42996 412.895626 131.061078 415.901989 128.250573 418.733142 125.235008 418.939612 125.015243 419.09707 124.670121 419.120611 124.370654 419.210532 123.216892 419.085878 121.99813 420.56629 121.55009 422.296396 121.026603 424.085162 120.335197 425.779763 121.357796 427.600562 122.45623 429.328352 122.970431 431.36797 121.985362 432.285702 121.541965 433.07878 122.032565 433.698191 122.837335 436.013747 125.844776 438.35323 128.833645 440.692713 131.822127 441.332964 132.640439 441.140001 133.226992 440.254301 133.666907 439.33271 134.124233 438.428099 134.620637 437.487984 135.036564 436.170047 135.619635 435.999467 136.245653 437.13216 137.281021 438.746488 138.75669 440.259704 140.343789 441.80225 141.897227 442.149197 142.246993 442.694896 142.583216 442.416258 143.183312 442.14225 143.774121 441.52747 143.554357 441.037345 143.573702 439.273277 143.643346 437.47602 143.116763 435.766368 144.111892 435.111452 144.492997 434.620168 143.72924 434.140848 143.331884 431.431262 141.083172 428.964424 138.534604 425.496493 137.321646 423.203707 136.519971 418.162743 137.506975 416.859471 139.531668 415.840627 141.114511 414.796697 141.398502 413.208226 140.543047 412.256147 140.03078 411.213761 139.686431 410.221931 139.270505 409.634552 140.007952 410.166744 140.467213 410.478958 140.868437 413.670951 144.974312 416.628302 149.29995 421.115462 152.195187 422.071401 152.811533 422.759121 153.67163 422.249699 154.970096 421.742978 156.261597 420.695189 156.315764 419.540499 156.258501 418.128782 156.188858 416.712433 156.152488 415.299559 156.175703 414.190022 156.193501 412.965479 156.660886 412.991336 157.791433 413.046137 160.185237 411.392059 161.646978 410.370899 163.434109 409.741453 164.534864 409.936346 165.037458 410.993397 165.498653 412.760938 166.269762 414.506095 167.09233 416.267847 167.87582 417.069415 168.231776 418.379633 168.373384 418.212913 169.407978 417.989848 170.788855 418.018793 172.541938 416.588937 173.345547 414.690182 174.413028 412.647476 175.226697 410.652239 176.116973 409.362088 176.692693 408.559362 175.658487 407.781722 175.005385 406.332184 173.788557 405.064803 172.692058 403.123596 174.250139 402.38995 174.839014 401.361844 174.387879 400.601184 173.841177 397.579384 171.668685 394.406301 169.648635 393.093381 165.837585 392.519123 164.17117 391.281459 163.081635 389.67755 162.352699 384.997041 160.226636 380.333898 158.062269 375.663422 155.914153 375.005419 155.611203 374.336223 155.332629 373.68671 155.917248 371.527454 157.861851 369.218073 157.330238 366.858136 156.378056 362.800897 154.741433 362.788933 154.74801 360.367248 158.43641 358.212238 161.718556 356.047579 164.994898 353.939652 168.30761 351.841373 171.604458 353.324486 174.76318 357.213847 175.388424 357.974893 175.511074 358.74057 175.608575 359.496985 175.755987 360.23256 175.898757 360.613083 176.433851 360.623117 177.131835 360.634695 177.947438 360.029177 178.202411 359.322161 178.243423 352.914633 178.616016 351.491338 183.85205 352.397492 188.812606 352.806573 191.051259 354.414727 192.558268 356.655799 193.098779 358.572693 193.561135 359.781799 194.690908 360.660552 196.39408 362.148682 199.27771 365.659065 199.483932 367.557048 196.850245 367.707559 196.641315 367.931396 196.454825 368.000091 196.221906 368.854531 193.326669 370.867521 192.286271 373.739967 192.500232 374.36208 192.546661 375.170209 192.205021 375.353138 193.055833 375.549574 193.96855 374.817087 194.237838 374.042919 194.30903 373.279558 192.518417 371.807636 193.993699 370.709677 193.756524 369.663046 193.530956 369.636803 195.391213 369.003113 196.436253 370.98793 196.015297 372.060804 194.109772 374.040604 194.306708"/>
    <path d="M363.384301 243.519124C364.016062 246.383409 362.175967 248.506763 359.969243 250.580981 356.918498 253.449134 356.968283 253.525742 359.151852 257.120123 359.886269 258.329213 360.682434 259.503867 361.507929 260.652599 361.876489 261.165253 362.324935 261.871361 362.844005 261.980469 365.340946 262.505891 365.799812 264.528262 366.468621 266.483699 367.206512 268.640714 368.355413 270.569841 369.966268 272.206464 371.817169 274.087227 373.688909 275.949031 375.485009 277.881253 376.447122 278.915846 377.068463 278.806351 377.595638 277.544642 377.71952 277.24827 377.886626 276.97047 378.031734 276.68261 379.369739 274.031125 379.596664 273.917374 382.317827 274.943843 383.102029 275.239441 383.814448 275.405811 384.451226 274.759287 385.033588 274.168478 384.973384 273.425613 384.589773 272.789535 383.816378 271.506933 384.477855 270.720348 385.448844 270.050609 388.677887 267.822789 391.929698 265.629017 395.157197 263.39965 395.85881 262.91524 396.528392 262.809227 397.319154 263.160154 398.610462 263.733552 399.940363 264.221057 401.228198 264.802194 402.272127 265.273448 402.685068 264.93413 402.617917 263.85272 402.58164 263.274292 402.546521 262.691607 402.441935 262.123238 402.330016 261.515792 402.259778 260.882423 402.904274 260.612747 403.655672 260.298577 404.111836 260.885518 404.442189 261.448083 404.929999 262.279936 405.376515 263.140034 405.788298 264.013287 406.376449 265.259133 407.035997 265.384491 407.855318 264.229182 408.153252 263.809386 408.457748 263.394233 408.768032 262.983336 409.368919 262.186305 409.851712 262.166572 410.595392 262.967473 412.633852 265.163953 415.49009 266.2295 417.861991 267.990321 418.99121 268.828365 420.504812 267.543441 420.150532 266.014765 419.697455 264.057395 419.885401 262.235442 421.540251 261.160997 423.516192 259.878395 425.876129 260.311345 428.111798 260.575991 428.273501 260.595336 428.503512 260.770219 428.549438 260.919953 429.487624 263.984656 431.503315 266.835399 430.075003 270.338856 428.882492 273.263498 427.147369 275.475842 424.158758 276.803325 421.407492 278.025183 418.829893 279.642848 416.189002 281.109618 415.410975 281.541795 414.687364 281.664832 413.812084 281.322031 412.378369 280.759853 410.841612 280.441814 409.445332 279.806897 408.240472 279.259421 407.637269 279.491953 406.980038 280.624822 405.559444 283.073953 405.493065 283.040292 402.976828 281.756529 401.490627 280.998576 399.972009 280.29208 398.542539 279.437786 397.333047 278.715041 396.498675 278.911203 395.509933 279.900529 390.550399 284.863019 385.47007 289.70518 380.552602 294.709069 378.993847 296.295395 377.315841 297.270017 375.146166 297.696778 367.084945 299.281942 359.037232 300.939072 351.001868 302.649982 349.785815 302.908824 349.189174 302.403521 348.622249 301.55387 344.263987 295.022852 339.904182 288.492609 335.551324 281.957722 334.124941 279.81657 332.728661 277.655298 331.29842 275.516854 330.112469 273.743652 328.204838 272.826679 326.545356 271.636935 320.641847 267.404928 314.703991 263.220124 308.749154 259.061244 307.739186 258.356296 307.132896 257.512062 306.779002 256.333538 305.316729 251.465454 303.824739 246.605108 302.248618 241.773006 301.746914 240.235431 301.750001 239.041818 302.896201 237.713174 306.591828 233.427387 310.169747 229.039456 313.755385 224.659651 314.544218 223.696248 315.497069 223.247821 316.693439 223.036182 323.456405 221.839861 330.227861 220.681843 336.959567 219.327663 339.832786 218.749622 342.088909 216.709839 344.599743 215.3042 351.385864 211.504371 358.092485 207.562159 364.810684 203.642388 366.030209 202.930476 366.448167 203.079822 366.548894 204.57948 366.727578 207.233673 368.987174 208.710117 370.341388 210.695345 370.655146 211.154992 371.28845 210.854751 371.781278 210.675612 375.040422 209.490898 378.290304 208.2791 381.572218 207.160935 382.623867 206.802657 383.329339 206.13524 383.941032 205.291779 384.961034 203.885366 385.979878 202.47818 386.974795 201.054743 387.438678 200.390421 387.885581 199.742736 388.834187 200.172204 389.645403 200.539767 390.226993 201.064415 390.140546 202.085854 389.983474 203.945337 389.889694 205.81101 389.726061 207.670106 389.627264 208.794463 389.844155 209.665394 390.972602 210.218673 392.247315 210.843531 392.193672 211.568984 390.948289 212.240271 389.466333 213.039624 389.631509 213.912877 390.830967 214.860803 391.282887 215.21792 391.68039 215.649323 392.077508 216.070666 393.971632 218.082204 396.110434 218.839384 398.842404 217.784671 400.629627 217.094813 402.552309 216.767102 404.392404 216.203763 405.567549 215.843938 406.12251 216.310163 406.267618 217.414013 406.368345 218.178931 406.361012 218.957778 406.42469 219.728113 406.652001 222.468587 406.655088 222.476712 403.926592 222.203942 402.888065 222.099863 402.260549 222.732459 401.638823 223.400263 399.613869 225.57585 398.114161 228.151888 396.270979 230.465601 395.802079 231.054863 395.462464 231.879366 394.488001 231.666566 393.599986 231.473111 393.588022 230.627329 393.448317 229.974227 393.134173 228.503201 392.353059 228.510552 391.179458 229.007343 389.295368 229.804375 387.421312 230.684592 385.247391 229.922382 384.213881 229.559848 383.942961 230.489977 383.751156 231.24677 383.31506 232.965805 382.217101 233.474203 380.568425 233.140688 379.942839 233.014169 379.297571 232.947233 378.659249 232.930983 375.451819 232.849732 374.201419 233.659145 372.940213 236.562894 372.747636 237.006679 372.681257 237.474451 372.93481 237.864455 374.308707 239.981619 375.143464 242.569651 377.99044 243.388736 378.749942 243.60734 380.153555 243.866181 379.754507 244.94643 379.444609 245.785248 378.274481 244.902323 377.482561 244.905031 373.103846 244.920894 369.499298 242.773938 365.853455 240.730674 365.210503 240.370462 364.613475 239.527388 363.809592 239.968077 362.992587 240.41573 363.484642 241.371782 363.391248 242.101104 363.350726 242.418369 363.384301 242.745307 363.384301 243.519124M289.324229 418.738663C293.726486 417.360108 298.132216 415.991612 302.528298 414.594098 303.452591 414.300047 304.359903 414.039271 305.347487 414.065194 311.317375 414.222666 317.288421 413.891085 323.263712 414.242785 325.150118 414.353828 327.081677 414.08067 329.008606 414.191326 330.005066 414.248589 330.973354 413.89418 331.876421 413.270484 334.413498 411.519335 337.057863 409.924111 339.60536 408.187278 340.652377 407.473045 341.621823 407.317894 342.849453 407.666499 350.624703 409.873039 358.406513 412.057525 366.214952 414.142189 367.791846 414.563145 368.794095 415.370237 369.545493 416.759626 371.717098 420.775737 373.911087 424.780628 376.189594 428.735995 376.86728 429.912584 376.709822 430.579228 375.568639 431.232716 374.232949 431.997635 372.991811 432.928537 371.654964 433.690747 370.455892 434.374414 370.418457 435.100642 371.171013 436.180117 372.75138 438.448175 374.191269 440.816056 375.795563 443.066316 376.659651 444.278501 376.87384 445.463215 376.471706 446.875045 374.95656 452.191943 373.466114 457.516193 372.010402 462.849341 371.707064 463.960156 370.923249 464.359058 369.966152 464.651561 361.987906 467.089859 354.013904 469.541699 346.032184 471.96839 343.4569 472.751493 340.792082 473.291231 338.295913 474.268949 335.257132 475.459854 332.635923 473.852635 329.849152 473.411946 328.085085 473.132598 326.376977 472.510836 324.631434 472.094909 322.094743 471.491332 319.858688 472.826941 317.500294 473.319088 314.681106 473.907963 311.912859 474.740591 309.114896 475.436252 308.152011 475.675749 307.285993 475.49661 306.366331 474.976218 302.735926 472.920959 299.032581 470.995315 295.38095 468.977974 294.333933 468.399545 293.291161 468.073381 292.081283 468.171656 287.610717 468.534963 283.132047 468.802317 278.667656 469.221726 277.228152 469.356757 276.509944 468.779103 276.043746 467.547572 275.524675 466.177142 275.12447 464.745193 274.164672 463.586789 275.557865 459.853894 277.415712 456.329544 279.189814 452.776175 282.83334 445.478305 286.474937 438.233828 287.254508 429.887435 287.604157 426.139064 288.342433 422.400753 289.324229 418.738663M288.194508 244.668707C287.751079 244.504658 287.206537 244.32668 286.680906 244.104981 261.093631 233.32532 235.507514 222.542564 209.922941 211.757099 201.694614 208.288464 193.480181 204.786554 185.234488 201.359317 183.728605 200.733299 183.253144 199.979214 183.614756 198.281846 184.256937 195.26628 184.586904 192.182232 185.006019 189.121011 185.181616 187.836087 185.812991 187.086645 187.04641 186.606878 198.781645 182.038648 210.509548 177.449525 222.213138 172.800044 224.682678 171.818844 226.997848 171.928339 229.497104 172.722276 237.149243 175.15477 244.850009 177.432114 252.531093 179.774072 253.854433 180.177618 255.237205 180.191547 256.551669 180.013569 262.472931 179.211894 267.681387 181.441648 273.1241 183.278304 280.53272 185.77812 285.935683 190.959987 291.74657 195.672534 296.540156 199.560579 301.276239 203.519041 306.057475 207.422175 306.87641 208.090753 307.492733 208.833618 307.872485 209.844223 309.20856 213.39914 310.602139 216.932389 311.987999 220.46796 312.277057 221.206182 312.16977 221.803182 311.652629 222.423396 307.409373 227.513179 303.401919 232.8235 298.878867 237.64825 296.177771 240.529946 292.367525 242.198683 289.065928 244.427276 288.866405 244.562307 288.579276 244.56695 288.194508 244.668707M224.032084 347.079318C222.255281 347.391166 220.457638 347.711913 218.736794 349.064933 214.039304 352.759523 213.99608 351.506326 211.771989 347.879832 211.305791 347.119556 210.970807 346.271066 210.640454 345.437278 210.058478 343.968185 208.989849 343.020646 207.58971 342.383408 207.162876 342.188793 206.602897 341.943493 206.335065 342.332336 204.731543 344.65843 203.300915 342.896062 201.812013 342.214716 200.995394 341.840575 200.159864 341.50822 199.341701 341.137175 198.599565 340.800178 197.810347 340.610206 197.155045 341.171997 195.968708 342.18918 194.709818 342.186858 193.375286 341.636287 191.832354 340.999049 190.390149 341.572834 189.142451 342.265014 185.142714 344.483935 180.885951 343.566187 176.700199 343.514342 175.652796 343.501187 175.439765 342.799721 175.828778 341.881974 176.431208 340.461246 176.991959 339.021559 177.627579 337.61592 178.468511 335.755663 179.500091 334.033146 179.535597 331.826606 179.56184 330.199655 180.971627 328.937946 182.030222 327.804304 183.889999 325.812112 183.886525 323.673281 183.032085 321.42805 182.340506 319.610353 182.543889 318.241471 184.120011 317.029286 185.338765 316.091806 185.356517 314.715185 185.141557 313.316511 184.001145 305.896764 182.858419 298.477405 181.743479 291.053789 181.612264 290.180149 181.26686 289.479071 180.665202 288.851505 178.395957 286.483624 176.169165 284.075118 173.875607 281.731613 172.950543 280.786395 172.346568 279.766117 171.979553 278.461848 171.265976 275.927209 170.394169 273.428941 169.442862 270.971684 167.079065 264.868587 167.124219 258.382064 166.373207 252.026316 166.215363 250.690708 165.85761 249.548554 165.107756 248.459406 163.687934 246.398344 162.28162 244.325674 160.950562 242.206576 159.472851 239.854171 159.568947 237.572571 161.512084 235.633772 165.792388 231.362688 170.148334 227.163569 174.593429 223.065819 176.439699 221.364195 178.223834 219.604148 180.012601 217.848357 181.012149 216.867156 181.448631 217.053646 182.386817 218.116097 185.561058 221.711639 185.415178 225.353997 183.331564 229.382489 182.277986 231.419563 181.702957 233.703098 180.873988 235.860887 180.530514 236.755033 180.545565 237.589595 180.889811 238.480646 183.925118 246.33373 186.962741 254.18604 189.943247 262.060018 190.484315 263.489645 191.446814 264.371023 192.70802 265.106149 197.141923 267.689151 201.48166 270.443941 205.995064 272.876435 208.422152 274.184573 209.687989 276.168254 210.498434 278.581403 211.156051 280.539547 212.510651 281.372174 214.372358 282.162629 222.674397 285.687366 231.629808 286.387671 240.261813 288.458406 242.063701 288.890583 242.838254 289.869075 242.751035 291.533169 242.435348 297.563526 242.032055 303.589628 241.666969 309.617664 241.515686 312.120576 241.259431 314.624262 241.257116 317.127948 241.251713 323.181907 240.240587 329.182473 240.373731 335.241075 240.398431 336.366979 239.966194 337.203862 238.732774 337.522675 237.262011 337.902619 237.127708 338.884206 237.563419 340.224071 238.616997 343.465204 239.561357 346.74232 240.572097 349.997769 240.76699 350.625722 241.053733 351.239746 240.469055 351.784127 239.991279 352.229458 239.297384 352.266988 238.835045 351.989575 234.928317 349.644909 231.87873 351.653351 228.785148 353.806885 228.040697 354.325342 227.084372 355.595563 226.148116 354.423617 225.306411 353.370065 224.010472 352.215917 224.995741 350.481405 225.304482 349.937412 225.360441 349.254518 225.583506 348.654036 226.108365 347.239111 225.4411 346.900179 224.032084 347.079318M261.1976 176.703527C254.252477 178.405925 248.086538 174.740739 241.56439 173.083223 237.025901 171.929848 232.651045 169.960483 228.064315 169.220714 224.749212 168.686006 224.137133 167.372838 224.051072 164.40138 223.887053 158.748258 223.117903 153.113708 222.902556 147.459813 222.81881 145.255207 223.535475 143.016941 223.915612 140.798407 225.18608 133.377886 226.501315 125.964717 227.723543 118.536459 227.984043 116.951681 228.684112 115.852087 229.984297 114.931244 242.83756 105.827671 255.663808 96.6861813 268.496231 87.5532033 268.914575 87.2552837 269.376914 86.9902513 269.717686 86.6176583 271.416146 84.7585623 273.326866 83.9665604 275.832297 84.9763919 276.881629 85.399283 277.810167 84.6366861 278.668852 84.0776032 279.823157 83.3258397 280.296688 83.8148922 280.473442 84.9818086 280.761729 86.8819169 280.553329 88.5963089 279.435687 90.3056712 275.898676 95.7150406 276.215907 97.3652059 281.226769 101.494682 281.722684 101.903257 282.21088 102.345107 282.769701 102.647669 285.248503 103.989081 287.058882 105.586627 285.942784 108.834725 285.562647 109.940123 286.340674 110.799834 287.26651 111.388709 287.6397 111.625884 288.063447 111.860737 288.489509 111.92419 292.120686 112.466636 294.243279 114.707611 295.453543 118.020323 295.679309 118.638216 296.050184 119.237537 296.641423 119.4987 299.734233 120.866035 302.586997 122.85668 306.119377 123.096177 308.202606 123.237398 309.337228 125.032267 307.96063 126.559009 305.359103 129.444186 305.303916 133.164313 303.997557 136.447232 301.773852 142.03458 299.134118 147.40255 295.910865 152.441261 294.203529 155.110544 291.208743 156.593564 288.717206 158.497542 281.412014 164.079085 274.000692 169.520181 266.6681 175.065356 265.07191 176.27251 263.491929 177.274991 261.1976 176.703527"/>
    <path d="M286.792516 254.10715C286.535489 260.166139 286.330948 266.59656 285.949268 273.016922 285.83349 274.966167 284.51864 276.539338 283.456958 278.128371 283.134324 278.612007 282.580906 278.496708 282.043697 278.363999 279.866303 277.826583 277.603234 277.539109 275.510357 276.777673 272.498205 275.682335 269.875067 276.190733 267.092927 277.594437 263.0326 279.643119 258.925577 281.71424 254.631765 283.15354 248.473159 285.218085 242.16327 286.339346 235.612563 284.353731 232.014576 283.263036 228.241764 282.684994 224.511018 282.119334 221.151533 281.610162 218.142854 280.175118 215.033063 278.998916 213.489745 278.415457 213.118099 276.807465 212.604045 275.460636 211.807108 273.372104 210.480295 271.940155 208.517862 270.832435 203.710768 268.119045 199.015594 265.207171 194.258671 262.403631 193.489906 261.950174 192.998623 261.343502 192.68911 260.53022 189.83596 253.030383 186.998246 245.524743 184.099171 238.043091 183.520282 236.548463 184.446504 235.431457 184.841306 234.220434 185.8972 230.984717 187.100517 227.795042 188.326603 224.618522 188.765015 223.483332 188.669691 222.574097 188.014389 221.546468 186.563308 219.270671 185.229934 216.919428 183.844845 214.601845 183.507932 214.037732 183.307637 213.450018 183.30918 212.77641 183.314583 210.455732 183.329634 208.133507 183.264799 205.814376 183.222347 204.286474 183.783483 204.01912 185.130365 204.594067 190.560728 206.913197 196.015405 209.175839 201.456961 211.469433 217.660447 218.299918 233.863547 225.130789 250.06356 231.969786 261.654459 236.863406 273.23378 241.78411 284.8351 246.651807 286.257237 247.248421 287.018668 248.017595 286.824162 249.680141 286.667862 251.015363 286.792516 252.383859 286.792516 254.10715M148.893271 98.6756654C148.029569 101.977544 149.451706 104.231286 152.113437 106.014548 153.172418 106.723752 153.977459 107.815608 155.040299 108.515912 159.135359 111.214213 160.226758 115.725568 161.909395 119.846918 165.897553 129.614426 169.776109 139.427203 173.701361 149.220634 175.304498 153.219721 176.90609 157.219582 178.526593 161.211706 178.886276 162.098113 178.924097 162.88199 178.42934 163.777684 177.309769 165.805085 176.193671 167.848736 175.283272 169.975186 174.188786 172.533039 172.386898 174.228859 169.981035 175.554408 166.325159 177.568654 162.781587 179.790284 159.224894 181.980573 158.32916 182.532305 157.545344 182.654955 156.516852 182.343494 149.699856 180.277402 142.840795 178.349436 136.041166 176.229951 133.081886 175.30756 130.604241 173.346708 127.937879 171.810293 115.521098 164.655966 103.144068 157.431221 90.7307607 150.270317 89.593437 149.61412 89.332551 149.060067 90.0225866 147.841304 94.3661829 140.171228 98.6823784 132.484127 102.909039 124.74905 104.555785 121.735806 105.049384 118.290772 106.037741 115.034936 107.419741 110.480634 108.711821 105.898089 109.970712 101.307805 110.357024 99.8998443 111.023904 99.2989752 112.554872 99.4135001 116.842509 99.7346343 121.157933 99.7547535 125.428203 100.215175 129.035838 100.604405 132.252917 99.6560918 135.507816 98.3584003 139.324624 96.8366887 143.216301 95.5053362 147.06321 94.057911 148.413951 93.5499 148.995155 93.9043083 148.906007 95.3896505 148.840785 96.4811197 148.893271 97.5799402 148.893271 98.6756654"/>
    <path d="M86.1597382 191.142299C85.3315412 191.197627 84.6608019 190.763902 83.9703804 190.437351 77.9823538 187.606728 71.4362782 186.697106 65.1298627 184.971106 63.5622316 184.542411 62.9563279 184.115651 63.9161256 182.537451 64.5123812 181.556638 64.7678641 180.364185 65.3818723 179.398074 68.0131153 175.2597 67.3717064 170.984746 65.8063908 166.787175 63.7748767 161.340662 61.3431575 156.144866 56.7799693 152.167446 54.3266382 150.029002 52.3526271 147.333409 50.1898982 144.864932 49.1062182 143.627986 47.8245582 142.626279 46.3229204 142.049785 42.6747627 140.648789 40.4773004 137.908702 39.1906234 134.392864 38.6480116 132.909456 37.7819938 131.915875 36.3695049 131.484472 34.1658679 130.810864 33.2365582 129.477964 33.6205545 127.167345 33.7560145 126.352129 33.6506567 125.494352 33.6356056 124.656695 33.6136079 123.469273 33.1809849 122.498132 32.0336271 122.018365 30.2726471 121.282465 30.919459 120.606923 31.8352612 119.508102 35.6960641 114.874485 41.1017286 112.688064 46.2631019 110.118604 59.4984316 103.530324 72.7619338 96.9989195 85.9949479 90.4063835 87.3001493 89.7559901 87.9647138 89.9405456 88.4262812 91.36553 88.9414923 92.9545637 89.6789967 94.4696979 90.2470797 96.0432552 90.6955256 97.2852319 91.4426782 97.8454756 92.8169604 97.9077679 97.1150175 98.1027698 101.405742 98.4567912 105.702641 98.6893233 107.006299 98.7597406 107.42966 99.2530491 107.057627 100.525592 104.998326 107.572358 103.18872 114.703084 100.834186 121.648094 99.3927523 125.90022 96.6268212 129.597905 94.4370775 133.533153 91.5893301 138.651567 88.6752034 143.733225 85.7267293 148.793603 84.9483167 150.129211 85.4955597 150.707253 86.6166745 151.354938 95.9707471 156.757343 105.298577 162.20579 114.641457 167.627153 119.034066 170.176107 123.441726 172.698365 127.846299 175.225652 128.2905 175.480625 128.885212 175.648543 128.766732 176.295454 128.662918 176.862275 128.087117 176.781024 127.656809 176.844864 120.801221 177.86669 113.949878 178.919082 107.085414 179.878228 105.688748 180.073617 104.541776 180.461299 103.50788 181.485833 101.314663 183.658712 98.9686197 185.676054 96.7549486 187.8292 95.1572153 189.382638 93.3275404 190.20095 91.1011338 190.361517 89.4439679 190.481072 87.8060982 190.872236 86.1597382 191.142299M396.391156 509.524643C396.388455 508.364304 396.441713 507.200483 396.377263 506.043626 396.251837 503.784853 394.857873 502.72898 392.65385 503.255562 391.386083 503.558512 390.812211 503.278003 390.560588 501.871977 389.371936 495.232625 388.054771 488.615714 386.824825 481.98294 386.636107 480.965757 386.033291 480.236434 385.45363 479.482736 382.280547 475.355195 379.119813 471.217594 375.876106 467.146929 374.805548 465.803195 374.606024 464.560444 375.108885 462.887452 376.830501 457.165073 378.365328 451.386593 380.000496 445.637905 380.253664 444.748789 380.088102 444.056996 379.573662 443.295947 378.131843 441.165241 376.806188 438.955993 375.368999 436.822192 374.722188 435.861111 374.956059 435.437059 375.809341 434.648152 379.159564 431.549788 383.320231 431.727379 387.3794 431.487109 391.095481 431.266958 394.818122 431.140439 398.539606 431.045646 400.356931 430.999217 401.391599 429.642715 402.631965 428.708331 406.888728 425.502406 411.070621 422.195498 415.244796 418.881239 416.473584 417.905069 417.558036 417.684531 419.097494 418.379805 422.488239 419.910803 425.990903 421.195339 429.461149 422.545264 430.59307 422.985566 431.410847 423.694769 432.037976 424.743678 436.427884 432.085269 440.909256 439.372693 445.225451 446.757231 446.565772 449.050825 446.542616 451.835407 447.20062 454.381266 447.923845 457.179002 448.401236 460.040578 449.077378 462.851856 449.44092 464.364669 448.981668 465.058009 447.468839 465.501793 442.724265 466.893503 438.034493 468.473251 433.297639 469.892819 431.968124 470.291335 431.538202 471.007116 431.388077 472.360522 430.793365 477.724236 429.828936 483.042682 429.435292 488.433093 429.347687 489.638313 428.570432 490.365315 427.486752 490.859784 424.855123 492.059975 422.262859 493.347993 419.623511 494.531547 418.436403 495.063933 417.852497 495.928287 417.645255 497.164847 416.329633 505.021413 414.968859 512.871015 413.697619 520.73532 413.374599 522.735251 411.98295 524.001603 410.881131 525.471081 410.385602 526.131534 409.715249 525.8518 409.233228 525.310127 408.850003 524.879885 408.438992 524.433779 408.20049 523.919965 406.357308 519.948735 402.242951 519.042208 398.925918 517.147129 396.980465 516.035154 396.396559 514.600884 396.393858 512.619912 396.392314 511.588026 396.393858 510.556528 396.391156 509.524643M24.2327906 119.993634C23.1703365 119.940241 22.657055 119.898454 22.1430017 119.89149 19.400998 119.85396 17.4790869 118.868504 16.3892321 116.057226 14.8794899 112.164925 12.8452743 108.474977 11.5863839 104.476664 10.8967343 102.286374 9.19055578 101.037433 7.62871356 99.6221213 6.91436467 98.9748231 6.08732541 98.4277343 5.47370319 97.6980247 3.8215543 95.7333027 2.07639726 93.7852178 3.67914763 90.8853377 4.58067059 89.254131 3.94505059 87.6465257 3.21101948 86.099665 2.57655726 84.7632826 2.07832689 83.3530007 1.35124244 82.0715594-.478818296 78.8478367-.105627926 75.726258 1.353558 72.4812554 3.11338022 68.5669009 3.36577578 64.2876916 3.91610615 60.1001796 4.06352985 58.9800791 4.30010244 58.0139683 5.00325948 57.0915782 7.65418467 53.6121089 10.1955069 50.0486806 12.867658 46.5858484 13.6719276 45.5427428 14.1585802 44.4849346 13.9374447 43.2154874 13.5955143 41.2538607 14.5568558 40.2757557 16.3120469 39.9755146 17.8206313 39.7170597 18.6762291 38.9262185 18.6550032 37.4168879 18.5843787 32.331361 22.5405054 29.731722 25.3110676 26.3872839 26.7984261 24.5920279 29.0117113 23.376361 29.5126432 20.7689839 29.6882395 19.8543319 30.8271069 20.2064187 31.5499461 20.0860901 36.0039173 19.3447732 35.1332684 19.3505769 37.0397424 22.9480532 46.0194669 39.8923293 54.9976476 56.8369923 63.9650224 73.7874589 64.5670669 74.9253572 65.4381017 75.6833111 66.6132461 76.1897745 70.4439469 77.8403267 74.2603684 79.5253137 78.0740884 81.2149437 80.6852632 82.3714135 82.4207721 84.5860785 84.301775 86.5875568 85.0689958 87.403934 84.2573936 87.9382548 83.5090832 88.3085263 78.4959054 90.7897713 73.4896743 93.284945 68.474181 95.7615471 57.5922276 101.134547 46.6631913 106.41585 35.8514765 111.92775 33.2368284 113.261037 31.2817276 115.680764 29.2872624 117.847839 27.6906869 119.58235 25.9933847 120.426198 24.2327906 119.993634M484.886171 574.920131C483.998155 575.013376 483.207393 574.723968 482.415087 574.458549 480.999897 573.983425 479.560779 573.756697 478.058755 573.81512 476.736187 573.866192 475.950828 574.312685 476.163473 575.789515 476.352191 577.097266 475.758637 578.02662 474.525218 578.221622 472.111251 578.603114 470.904847 580.276494 469.922279 582.211424 468.844002 584.333618 467.85526 586.502241 466.832942 588.653066 466.112804 590.167426 465.347127 591.64503 464.254957 592.942721 462.258562 595.315632 462.276315 595.333817 459.449407 594.148329 458.071652 593.570674 456.661478 593.822165 455.276776 594.047346 454.701361 594.140977 454.154504 594.643185 454.216638 595.272298 454.406513 597.191752 453.542425 596.866749 452.357247 596.301475 449.518761 594.947682 446.658664 593.637609 443.787375 592.35462 442.695977 591.866342 442.073478 591.30455 442.721062 590.014984 443.306898 588.848068 442.705239 587.950826 441.936475 587.069449 440.062418 584.922106 437.40995 584.170729 434.940024 583.146969 430.708346 581.392725 430.503419 581.449988 430.769322 576.959526 431.025577 572.629245 429.421283 569.747937 425.33317 568.291999 425.272579 568.270333 425.2062 568.254082 425.156415 568.216939 424.152236 567.46092 422.436795 567.021392 422.406693 565.778641 422.374275 564.436068 424.18311 564.335085 425.230127 563.868086 428.669499 562.333607 429.182009 561.80006 429.108297 558.104696 429.068161 556.077681 430.109389 554.545523 430.971933 552.911221 432.052912 550.862927 433.121927 548.800704 434.346084 546.838303 436.343636 543.635087 435.950378 540.451603 433.979068 537.591961 432.193775 535.001221 432.238542 532.14777 431.928644 529.3067 431.769256 527.841477 432.578929 527.397693 433.843222 528.028354 435.278867 528.743748 436.709494 529.499767 438.036693 530.395848 438.975651 531.029604 439.559943 530.787786 440.162759 530.036023 441.128346 528.833898 442.215113 527.708381 443.03289 526.412237 444.163653 524.619689 445.761387 523.913581 447.759325 523.54447 457.02695 521.832399 466.276437 520.025149 475.534414 518.258911 475.97244 518.175339 476.423201 518.127749 476.869718 518.116529 482.971207 517.961379 489.074625 517.859235 495.174184 517.653786 500.047271 517.489737 504.915341 517.19646 509.786498 516.981726 510.342617 516.956964 511.099032 516.660592 511.419736 517.17518 511.840395 517.849949 510.928838 518.24034 510.71465 518.810643 510.626658 519.044723 510.33953 519.225022 510.30441 519.454072 509.957077 521.738381 509.340367 523.567685 506.537773 524.06757 505.26113 524.29546 504.945057 525.952976 505.34835 527.357841 505.722312 528.66095 506.176933 529.931557 506.827218 531.128266 507.193847 531.804195 507.406107 532.536613 506.448238 532.87748 504.483875 533.57585 504.537133 535.097948 504.866328 536.688917 505.247237 538.527119 505.436727 540.361453 505.18163 542.229835 504.948916 543.93765 503.859833 544.964505 502.423417 545.701953 501.942553 545.949187 501.320055 546.052879 500.966547 545.652429 499.809155 544.342743 498.887564 544.948255 497.872964 545.835049 497.24815 546.380977 496.529556 546.834434 495.808261 547.251135 494.117519 548.228466 493.040014 549.34934 494.373002 551.399182 495.02213 552.397793 494.292344 553.140658 493.616587 553.72489 492.421375 554.757936 492.027344 555.816905 492.997176 557.236859 493.921083 558.589492 493.529368 559.500275 491.93781 559.94522 491.388251 560.098823 490.877671 560.407963 490.365547 560.676864 489.098553 561.340412 488.286564 561.04404 487.547516 559.74751 485.129304 555.506217 485.085309 555.523628 480.147001 555.24931 479.056374 555.188952 477.961116 555.195143 476.867788 555.195143 476.378434 555.19553 475.767127 555.002849 475.523608 555.635832 475.331803 556.134557 475.758251 556.452596 476.046152 556.794236 477.369878 558.367406 478.544636 560.100757 480.041257 561.485116 482.079718 563.370522 482.286188 565.427328 481.577242 567.940686 480.616287 571.348964 480.708523 571.375274 484.277566 571.493281 484.534593 571.501793 484.792777 571.496764 485.048646 571.51843 486.278978 571.623283 486.628627 572.419928 486.646765 573.519909 486.668377 574.804445 485.877229 575.000608 484.886171 574.920131M286.939129 414.216669C289.136205 412.764601 291.310512 411.275776 293.540778 409.877488 294.577375 409.227482 294.503663 408.677298 293.674694 407.960356 292.605679 407.036032 291.563679 406.080754 290.501225 405.148691 289.541814 404.307165 289.696956 403.647486 290.789512 403.092659 291.188945 402.889919 291.588765 402.668607 291.941115 402.395063 293.598281 401.107431 293.715602 400.362245 292.499936 398.679579 291.536665 397.346292 290.715028 396.015713 291.307039 394.243672 291.562522 393.47798 291.172737 392.84461 290.476912 392.47666 289.832802 392.135407 289.229985 392.297522 288.720563 392.804372 288.401402 393.122024 288.113502 393.474111 287.775431 393.768935 287.004351 394.441769 286.065393 394.51799 285.290068 393.972836 284.506252 393.421878 285.168501 392.659281 285.420511 392.066924 288.768418 384.200685 292.187722 376.365011 295.477354 368.474784 296.038877 367.128729 296.82385 366.192797 298.012116 365.476629 303.237939 362.327193 308.449097 359.153768 313.686497 356.024065 314.822663 355.34504 315.634265 354.489972 316.293813 353.307966 318.856361 348.714587 320.774413 343.748615 324.2161 339.6528 325.135762 338.558236 326.027637 337.985998 327.481034 338.160881 332.696051 338.788446 337.918014 339.797891 343.139592 339.810272 348.858242 339.824201 352.834051 343.010006 357.109339 345.891702 358.705142 346.967308 360.274703 348.082378 361.867419 349.163401 362.899385 349.863319 363.453189 350.785322 363.475573 352.065216 363.538479 355.672752 364.235075 359.216061 364.626404 362.790323 364.827085 364.621561 364.44772 365.998569 363.117048 367.463018 355.599597 375.736285 348.224166 384.13994 340.819791 392.516125 339.298471 394.237094 340.20231 396.494319 339.666645 398.455559 339.333977 399.675095 339.209322 401.019989 339.322785 402.278603 339.509573 404.353594 338.477993 405.500391 336.849385 406.421234 335.733674 407.051895 334.559687 407.658181 333.618028 408.50551 330.705059 411.128364 327.283054 411.509469 323.58048 411.275002 320.763607 411.097024 317.910457 411.433635 315.100916 411.203811 306.603985 410.509697 298.51189 412.025605 290.684926 415.26906 289.914618 415.58826 289.107647 415.81731 288.319972 416.088146 287.692457 415.589807 287.176474 415.006736 286.939129 414.216669"/>
    <path d="M443.027526 503.252119C440.774876 503.314411 439.301411 504.302576 437.898184 505.285324 434.906873 507.380821 432.012042 509.614444 429.070515 511.781906 426.164107 513.923445 424.640857 517.055858 423.08519 520.16196 421.729818 522.867999 420.255967 525.507103 418.601116 528.038646 417.511647 529.705061 414.75768 530.221197 413.147983 529.133597 412.407777 528.633324 412.472613 528.006145 413.044169 527.532569 416.878343 524.35605 416.789194 519.70386 417.577641 515.411496 418.598029 509.855101 419.471765 504.27201 420.410337 498.700913 420.604844 497.545604 421.434584 496.979943 422.403259 496.526099 425.079269 495.271742 427.709354 493.905567 430.43978 492.785467 431.678602 492.277456 432.082667 491.444829 432.226231 490.322794 432.901216 485.036461 433.602829 479.752063 434.175543 474.454123 434.319493 473.125092 434.943536 472.473538 436.079701 472.124547 440.554513 470.7487 445.033569 469.386007 449.511081 468.019059 453.025323 466.946549 456.215001 465.104864 459.592239 463.704254 460.827201 463.192374 461.542322 463.335143 462.383255 464.368576 465.301627 467.954832 468.312621 471.464867 471.282707 475.00895 472.096239 475.979704 473.063369 476.512864 474.360852 476.77248 477.753913 477.451118 481.106065 478.338299 484.472111 479.151968 486.651435 479.678937 487.724309 481.585236 489.131009 483.032274 492.625954 486.626655 496.049117 490.291841 499.460702 493.965925 501.186563 495.825021 503.553833 495.09299 505.605415 495.624215 506.249911 495.790973 507.139856 495.450493 507.372956 496.391842 507.574795 497.207059 506.760105 497.418698 506.300081 497.821856 504.733222 499.194995 504.684981 499.841519 506.499219 500.531377 510.219545 501.945915 512.371082 504.670139 513.761187 508.246722 514.318464 509.680219 515.112314 511.026274 515.849819 512.383549 516.445688 513.480048 516.144666 513.772164 514.938647 513.875856 510.192916 514.282884 505.43252 514.001214 500.68949 514.252705 492.611289 514.680626 484.525755 514.805984 476.446396 515.094618 472.773924 515.22578 469.133485 516.349363 465.485713 517.060887 460.141411 518.10438 454.803284 519.181147 449.463227 520.248241 449.083476 520.324075 448.581386 520.507083 448.384178 520.163121 448.034143 519.552579 448.564405 519.090997 448.922544 518.661915 451.106499 516.049121 453.280034 513.427816 455.509528 510.854486 456.262084 509.98549 456.445784 509.302983 455.279902 508.735775 451.931995 507.106889 448.711829 505.21065 445.226918 503.870399 444.394476 503.550425 443.55007 503.189053 443.027526 503.252119M182.218168 187.566799C181.756986 190.513882 181.469857 193.080247 180.937665 195.594766 179.92654 200.371153 180.02032 205.203254 180.215598 210.013689 180.319798 212.579667 179.489285 214.323464 177.634911 216.024315 171.946363 221.241003 166.386714 226.600075 160.829767 231.958372 159.829833 232.922549 158.984269 233.017728 157.750464 232.454389 148.244337 228.114435 139.521639 222.413337 130.695513 216.891377 130.15869 216.55554 129.699438 216.079256 129.247133 215.625025 124.706328 211.063372 119.711675 206.855741 115.776003 201.817417 112.148685 197.17374 106.997731 195.682594 102.311047 193.121259 101.297991 192.567593 100.225503 192.122261 99.1819596 191.623922 98.1963047 191.153055 98.1812536 190.534388 98.9469307 189.84453 101.287185 187.735491 103.642877 185.643476 105.978501 183.529407 106.486765 183.069373 107.093055 182.891782 107.729061 182.798537 116.108285 181.569715 124.491368 180.368751 132.865574 179.106655 133.853159 178.957695 134.778995 178.974332 135.708691 179.252519 142.470113 181.275278 149.23964 183.270178 155.978292 185.366062 157.635844 185.881425 158.980024 185.829192 160.502888 184.844897 164.441262 182.299812 168.520113 179.973717 172.49708 177.487055 173.748637 176.704339 174.546732 176.612642 175.501127 177.997775 177.287192 180.589289 179.298638 183.024492 181.194692 185.540945 181.729585 186.250922 182.418077 186.928786 182.218168 187.566799M271.864477 465.053598C272.669132 467.086029 273.45179 469.127359 274.288091 471.146635 274.637354 471.989322 275.201192 472.271378 276.250139 472.215664 281.56897 471.93322 286.897063 471.817535 292.221297 471.627562 292.956872 471.60164 293.616419 471.785808 294.248566 472.131317 297.519674 473.917675 300.78345 475.717573 304.066136 477.482651 305.073788 478.023936 305.332359 478.692514 305.057965 479.850531 303.147246 487.91332 301.27319 495.985395 299.48095 504.075267 299.092708 505.827963 298.209324 506.322819 296.608889 505.910375 295.153948 505.535073 293.666976 505.671265 292.195054 505.642634 290.927674 505.617872 290.220271 505.09864 289.793823 503.871753 288.822062 501.07866 287.818268 498.290983 286.132158 495.812446 285.562917 494.975176 284.905299 494.297699 283.913084 494.084126 282.587428 493.798587 281.543113 493.993589 281.103157 495.590748 280.660114 497.199127 279.936889 498.727803 279.450622 500.326509 278.928851 502.042062 278.146579 502.069533 276.803171 501.094136 274.672859 499.546888 272.381231 498.222887 270.257867 496.666741 267.437134 494.600262 264.461259 494.043113 261.007608 494.726007 255.295133 495.85578 249.470739 496.406738 243.833519 497.948569 241.155965 498.6806 238.705335 499.960107 236.226147 501.186994 232.763234 502.899839 231.564934 505.902636 231.133082 509.467999 230.543002 514.339179 228.214711 518.470202 225.390119 522.336967 224.223465 523.934126 222.371792 523.612218 220.739325 523.400966 218.519094 523.113492 216.328964 522.596969 214.123397 522.191876 212.760307 521.941546 212.319579 521.394071 212.55731 519.812775 213.825848 511.368494 214.988643 502.906029 216.002857 494.427314 216.286126 492.062528 215.141856 489.782863 214.635135 487.469536 213.315268 481.444208 211.933268 475.433196 210.576738 469.418314 216.504946 470.720262 222.867321 470.878507 227.340588 475.964808 228.053394 476.775769 229.03133 477.346072 229.802024 478.112925 230.59433 478.901058 231.39667 478.991594 232.422075 478.629448 239.976575 475.959778 247.527988 473.280823 255.111818 470.696273 260.688834 468.795778 266.158562 466.570667 271.864477 465.053598M342.386766 402.374402C342.5257 400.383757 342.729855 398.333528 342.795848 396.278656 342.867244 394.065926 344.593105 392.902105 345.810315 391.503817 352.225948 384.133982 358.772023 376.878671 365.223547 369.540562 366.221552 368.405373 367.141213 367.998732 368.224893 369.204726 371.847194 373.23554 376.434309 373.380631 381.281153 372.563866 381.850008 372.467913 382.43044 372.410264 382.984244 372.257048 385.845499 371.464272 388.13404 372.577408 390.42451 374.194686 395.094986 377.493082 399.847277 380.67734 404.631987 383.807044 405.922137 384.650505 406.631855 385.7087 407.031675 387.129428 409.556402 396.101452 412.09811 405.068446 414.654869 414.031185 414.900704 414.892443 414.728581 415.440306 413.987989 416.007514 409.300533 419.602282 404.643951 423.237675 399.999332 426.888158 399.034903 427.646499 397.994447 427.874775 396.790358 427.942871 391.733957 428.22841 386.681029 428.589782 381.631188 428.975143 380.395839 429.069549 379.602375 428.724426 378.981806 427.576082 376.62843 423.221038 374.141909 418.938347 371.798567 414.577887 370.9202 412.943198 369.775929 411.956581 367.935449 411.473719 360.616749 409.553491 353.333169 407.49978 346.036854 405.494046 345.356466 405.307169 344.6892 405.057613 343.998779 404.926838 342.571625 404.656002 342.04252 403.833047 342.386766 402.374402M62.0230046 5.12123856C63.0634609 5.46017051 64.4292527 5.83779332 65.7398572 6.35470324 66.7355461 6.7478024 67.5988624 6.75437984 68.4363216 6.05600979 71.5723557 3.44050752 75.2687542 2.42487239 79.2588424 2.11147641 80.443249 2.01861834 80.823772 2.36141938 81.0503105 3.4757162 83.1794639 13.9419813 85.3622609 24.3977998 87.5276913 34.8567136 90.1763009 47.6490733 92.8252964 60.4418199 95.469275 73.2353403 96.0551105 76.0694459 96.6112298 78.9097421 97.1993809 81.7434609 97.4023779 82.7211789 97.1611742 83.3530007 96.1079824 83.6191938 94.8637572 83.9333636 93.5546964 84.1670564 92.4277927 84.7396812 89.1848572 86.3886857 86.7820824 85.5726955 84.7270268 82.6813273 81.7361009 78.474083 76.765375 77.491722 72.4792816 75.4058977 72.3646616 75.3501828 72.2365342 75.3211647 72.1130379 75.2851822 68.5822016 74.261422 66.417929 72.0196734 64.6951557 68.6570506 56.4216757 52.5063241 47.8587513 36.5049443 39.3969394 20.4513319 38.2989801 18.367829 38.3503083 18.2262204 40.4686557 17.4187421 45.5076905 15.4973539 49.6343964 12.0120811 54.2300024 9.33003052 56.227169 8.16466176 58.1641313 6.89482767 60.1115135 5.64627356 60.6093579 5.32707395 61.0813453 5.01135651 62.0230046 5.12123856M370.978629 511.852517C366.137574 511.045813 360.723033 511.987548 355.561274 510.18378 353.469941 509.45291 351.345805 509.887021 349.467118 511.080634 347.682982 512.214277 346.14391 512.141925 344.405313 510.819858 341.493888 508.605193 338.421532 506.602167 335.410152 504.520212 333.526833 503.218264 331.606852 502.56555 329.283578 503.56919 327.647638 504.275299 325.770108 504.420776 324.13687 505.131914 321.653436 506.21255 319.437836 505.744391 317.146207 504.640154 315.795081 503.989373 315.406453 502.817814 315.076873 501.566938 314.012489 497.528773 312.992873 493.479001 311.907263 489.446639 311.738999 488.821395 311.807308 487.770551 310.993776 487.757396 310.309916 487.746176 310.387487 488.738209 310.183718 489.324763 309.045236 492.603813 307.920648 495.888667 306.71077 499.141408 306.166615 500.605084 304.967543 501.671791 304.087246 502.933113 303.878846 503.231806 303.706723 503.708864 303.228947 503.495291 302.799025 503.302997 302.892033 502.813945 302.964201 502.464953 303.353601 500.577226 303.780435 498.69685 304.204567 496.816474 305.349996 491.738686 306.533244 486.668635 307.63159 481.5804 308.016358 479.798686 308.709095 478.681294 310.717453 478.231706 314.718347 477.335625 318.650161 476.119185 322.591236 474.968518 323.652147 474.658992 324.450241 475.225039 325.3645 475.452541 328.163621 476.148977 331.026805 476.638029 333.763406 477.523276 336.716897 478.47894 339.186823 477.032676 341.779473 476.302579 351.35198 473.607374 360.895542 470.808477 370.434473 467.996425 371.807598 467.591719 372.654319 467.851721 373.540019 469.036049 376.694578 473.252966 379.969931 477.378959 383.201675 481.538227 383.60188 482.053589 383.890939 482.608029 384.01675 483.263065 385.362474 490.264177 386.70897 497.264901 388.091356 504.258662 388.244183 505.031705 387.977894 505.563704 387.40711 505.906505 382.438313 508.890732 377.458711 511.864124 370.978629 511.852517M182.641528 164.295599C186.585691 164.824503 190.529468 165.353794 194.474017 165.881925 196.000354 166.085826 197.529393 166.270768 199.053414 166.49324 200.050261 166.638718 200.736051 166.364787 201.279821 165.425373 203.599622 161.417386 206.06839 157.494133 208.317566 153.448229 209.542881 151.244011 209.785243 148.66217 210.417775 146.241283 214.126909 132.040575 217.778926 117.824779 221.436732 103.61053 224.003525 93.6364128 226.599263 83.6688729 229.070733 73.6703804 229.736069 70.9778833 230.788875 68.6219967 232.644021 66.5357854 234.607612 64.3280848 236.37168 61.9416325 238.198653 59.6136033 238.701514 58.9721088 239.223672 58.514009 240.113231 58.5449617 241.847968 58.6049325 243.584635 58.5871347 245.32053 58.6161529 246.836447 58.6416889 247.240897 59.3706247 246.690181 60.7615612 246.050702 62.3765178 245.509634 64.0320997 244.838123 65.6327407 244.234148 67.0712669 244.480369 67.7255294 246.178829 67.8787452 248.603216 68.0977355 251.002903 68.5864011 253.418028 68.9264938 254.657622 69.1013765 255.091403 69.920462 255.34264 71.016961 255.773334 72.89695 256.35338 74.7448256 256.733517 76.6341004 257.46832 80.2849701 259.611367 83.0428548 262.156934 85.5682073 263.811399 87.2102475 263.813328 87.1990272 261.836616 88.601184 250.093276 96.9305528 238.359584 105.27385 226.594246 113.571879 225.657604 114.232332 225.186388 115.035168 225.01002 116.084851 223.324682 126.110427 221.60461 136.1302 219.997614 146.168544 219.578113 148.790236 220.235731 151.433596 220.394732 154.066122 220.67723 158.754294 221.041158 163.438597 221.43596 168.119417 221.547879 169.446127 220.795323 169.985478 219.787285 170.388249 211.018662 173.894802 202.246951 177.394004 193.474469 180.891658 190.90729 181.915031 188.313868 182.876886 185.774089 183.963712 184.614768 184.460116 183.903892 184.235709 183.172563 183.222008 181.328608 180.66609 179.430625 178.14538 177.466262 175.681159 176.716022 174.740585 176.581334 173.898284 177.117771 172.855953 178.383222 170.397535 179.607379 167.917451 180.877075 165.460968 181.238688 164.761437 181.721095 164.144705 182.641528 164.295599M105.569381 82.6661992C99.8603787 82.5214954 100.737974 84.0555881 99.432001 77.7412394 95.1837284 57.2064513 90.9304387 36.6724371 86.6790787 16.137649 85.7663639 11.7295991 84.8671565 7.31845392 83.9324439 2.91504692 83.7375513 1.9984604 83.8899921 1.38907933 84.911538 1.22773843 85.599258 1.11940402 86.2445261.855919248 86.9909069 1.04821283 89.355475 1.65798082 91.7644247 1.96015645 94.2019328 2.18533727 95.6398928 2.31843383 96.7502017 2.10486027 97.6382173 1.02190305 98.5482306-.0877508749 99.5431476-.154299157 100.673139.604815554 103.268105 2.3486127 106.046771 2.9185291 109.093657 2.02322255 109.703034 1.84408386 110.411208 1.8007501 110.984308 2.13852132 114.471148 4.19532754 118.414539 3.88193156 122.203174 4.29166779 125.010785 4.59461724 125.212625 4.76176176 124.801999 7.62449864 123.788558 14.6909977 122.877773 21.7725861 121.815705 28.8309601 121.239517 32.6594209 119.83822 36.2901714 118.725596 39.9820534 117.990793 42.4203515 117.730293 44.7855239 117.844527 47.359627 118.138217 53.985824 118.050225 60.6286581 118.123551 67.2645278 118.131656 67.9911422 117.981145 68.6492738 117.632654 69.2977326 115.501571 73.2654805 113.382451 77.2401927 111.289189 81.2284468 110.754682 82.2471772 110.054998 82.7861409 108.844734 82.6851577 107.759897 82.5946211 106.661937 82.6661992 105.569381 82.6661992M182.012508 314.06514C181.955777 315.107085 181.276547 315.856914 180.442175 316.312306 178.984533 317.107403 178.840969 318.119169 179.457678 319.52326 179.99836 320.755177 179.865602 322.172037 180.475365 323.423299 180.835048 324.161134 180.383514 324.838224 179.906124 325.525374 178.255133 327.901379 176.412337 330.013514 176.04918 333.273606 175.75086 335.950239 173.978302 338.474818 172.781546 341.03035 172.38134 341.885031 171.733371 341.722529 171.047194 341.171184 168.189027 338.872173 165.854947 336.20676 164.824139 332.584908 164.626159 331.889247 164.361028 331.184299 163.770947 330.778819 160.671962 328.650821 158.708371 325.577993 156.722396 322.500135 155.265526 320.24291 153.369471 318.475512 150.757911 317.575949 149.421449 317.115528 148.470528 316.301859 148.183785 314.757707 147.907848 313.271591 146.839991 312.312831 145.513177 311.651991 143.556147 310.677755 141.623816 309.648192 139.63514 308.744373 138.344989 308.157433 138.174024 307.467575 138.441857 306.029435 139.870169 298.362067 144.459986 292.176172 147.799403 285.409914 150.153937 280.639718 153.58559 276.330716 154.666569 271.028521 155.350043 267.676731 155.169044 264.138839 153.277235 261.045118 151.804156 258.636611 150.194845 256.307422 148.558133 254.005702 147.88585 253.060098 147.880447 252.354376 148.592094 251.43895 149.813164 249.868875 150.90765 248.200525 152.07662 246.589438 152.592217 245.878687 152.799459 245.203144 152.591445 244.267212 151.896778 241.139443 151.337957 237.981495 150.715845 234.837862 150.579227 234.148004 150.197546 233.337818 150.735527 232.812009 151.397004 232.165484 152.02066 232.979153 152.61653 233.250763 153.844546 233.810233 155.020077 234.486162 156.254268 235.030156 157.471092 235.566024 157.840037 236.406777 157.077834 237.468067 155.519851 239.637851 156.072883 241.297689 157.726961 243.22991 159.634979 245.458891 161.124267 248.051952 162.750173 250.51656 163.567178 251.754668 163.360708 253.26632 163.554829 254.638298 164.084705 258.382799 164.194308 262.192302 164.81835 265.917071 165.239395 268.428882 166.242803 270.843578 167.002305 273.296579 167.439559 274.707248 168.013045 276.083482 168.344555 277.516978 169.079744 280.695046 170.80985 283.242839 173.068674 285.494647 173.387835 285.812686 173.662229 286.195726 174.0277 286.443734 178.690843 289.60942 179.375476 294.484856 179.878337 299.559549 180.333344 304.149446 181.151121 308.702974 181.814528 313.271591 181.851191 313.524629 181.937638 313.770316 182.012508 314.06514"/>
    <path d="M207.277071 468.392929C208.750537 474.836505 209.955783 481.358237 211.787002 487.698122 213.145847 492.404478 212.744098 496.941755 212.093041 501.59201 211.327364 507.059803 210.611471 512.53456 209.887474 518.007769 209.803728 518.641138 209.922979 519.455194 209.264204 519.715971 208.531331 520.005765 208.211012 519.152632 207.761022 518.748312 205.975729 517.144963 205.239768 514.907857 204.249097 512.82242 203.780197 511.835416 203.353362 510.801596 202.719286 509.926022 200.786183 507.255965 197.372668 506.545601 194.514887 508.247612 193.297291 508.972679 192.539332 508.976935 191.617741 507.743083 190.043935 505.63714 188.301094 503.651912 186.546288 501.691059 185.710373 500.757061 185.650168 499.925208 186.336345 498.939365 186.702974 498.412782 187.036414 497.86105 187.359048 497.305836 189.074103 494.351015 190.868659 491.423278 189.982573 487.737973 189.850586 487.188176 189.948997 486.582664 189.941279 486.002688 189.867953 480.631622 189.849042 480.663349 185.296274 477.922875 184.290551 477.317363 183.698541 477.340965 183.131616 478.387939 182.596337 479.376491 181.907845 479.540927 180.944188 478.794193 180.035718 478.09002 178.989859 477.566919 178.019255 476.940127 176.962976 476.257621 175.835686 475.808807 176.267923 473.993044 176.711352 472.132788 177.688517 471.3315 179.41978 471.290101 181.507639 471.240963 183.09997 470.761197 183.7545 468.391381 184.56726 465.447781 184.343809 464.291311 181.783191 462.453108 180.168862 461.29393 178.491242 460.220645 176.81478 459.152004 176.107378 458.701255 175.311599 458.389794 174.44095 458.548426 171.378242 459.107509 168.292378 458.857179 165.215777 458.806881 163.599133 458.780184 163.242537 458.062082 164.211597 456.766712 165.403337 455.173809 166.597391 453.553049 168.003705 452.161339 169.075422 451.101209 168.982799 450.226022 168.298553 449.126814 167.993285 448.636214 167.755169 448.104215 167.490038 447.588853 167.025383 446.685808 167.109515 446.206815 168.310902 446.113957 170.514539 445.943717 171.256675 445.06853 171.399468 442.793507 171.596676 439.656839 171.726347 439.518326 174.779793 439.170882 177.715145 438.836593 179.540575 435.712692 178.383955 432.987308 178.182888 432.514119 177.935123 432.060275 177.698551 431.602562 176.147128 428.59783 176.151759 428.607503 178.970177 426.881116 182.309979 424.835144 185.638977 422.77176 188.971447 420.716888 189.233877 421.232637 189.54995 421.727494 189.752947 422.264523 193.547757 432.306736 197.315551 442.359009 201.118465 452.398127 203.142647 457.740561 205.222402 463.062102 207.277071 468.392929M120.782388 53.2165723C120.782388 50.7036008 120.805158 48.1906293 120.776599 45.6780447 120.739936 42.4369112 122.069065 39.5091737 123.006479 36.531525 125.032976 30.0937524 125.497245 23.3990726 126.655409 16.8204653 127.223878 13.5905522 127.699724 10.3440019 128.181746 7.09977317 128.356956 5.9204757 128.932758 5.67246727 129.907221 6.23116332 132.944844 7.97263901 136.244124 8.99214323 139.589716 9.94316461 141.711923 10.5463552 143.431223 12.0030661 145.245461 13.2133163 146.392818 13.9786215 147.549438 14.6406222 148.964629 14.569431 152.684955 14.3817803 155.213541 16.9554964 158.20138 18.4903629 161.738005 20.306512 164.309815 23.1367485 166.603373 26.2602618 168.021651 28.1913227 169.695798 29.6960104 172.062295 30.2585755 173.543865 30.6106623 173.692061 31.4015036 173.105067 32.6670817 169.884129 39.6117045 166.675927 46.5629047 163.509791 53.5326766 162.84677 54.991709 162.029379 55.6281737 160.364495 55.0547751 155.682055 53.44214 151.41796 55.3159384 147.10408 56.7800006 139.143972 59.4810097 131.171128 62.1452625 123.201758 64.818801 121.953287 65.2374362 121.088813 65.1782391 121.124318 63.4518529 121.194171 60.0416403 121.144772 56.6294932 121.144772 53.2181199 121.023978 53.217733 120.903183 53.2169592 120.782388 53.2165723M144.376703 250.717908C141.865483 250.188617 139.290971 249.857423 136.852305 249.091344 128.566861 246.488222 120.032881 246.50486 111.501217 246.454175 110.106095 246.445663 109.341189 246.021998 108.690132 244.703026 104.991032 237.203576 101.161489 229.76874 97.3979398 222.301791 96.604862 220.729007 94.9882183 220.04031 93.817705 218.873394 91.6376094 216.700128 90.1595131 214.547368 91.098085 211.257871 91.5681427 209.610414 91.530322 207.819801 91.7518435 206.098058 91.8683931 205.191531 92.3187687 204.610394 93.2893724 204.367803 98.0200524 203.185797 102.751504 202.000696 107.451696 200.703778 108.86843 200.313 109.832087 200.543211 110.875245 201.604888 115.656481 206.471038 120.614858 211.164626 125.316979 216.105062 129.264229 220.252723 134.446829 222.504144 139.038575 225.656289 141.102507 227.073148 143.26485 228.349946 145.420632 229.625971 146.395095 230.202852 146.834279 230.975895 147.041135 232.079359 147.752011 235.871837 148.528494 239.652708 149.360164 243.420424 149.530743 244.193081 149.457032 244.826063 149.051809 245.429254 148.012125 246.976501 146.94504 248.505177 145.872938 250.030371 145.517114 250.536447 145.020041 250.804188 144.376703 250.717908"/>
    <path d="M96.1694218 227.306376C96.8949625 227.486676 96.9682884 228.221028 97.2434536 228.759992 100.458217 235.060412 103.681084 241.356963 106.827152 247.691818 107.429197 248.903616 108.181366 249.345852 109.518214 249.358233 114.655274 249.404662 119.801982 249.404662 124.923605 249.747076 127.716165 249.933566 130.471676 250.742205 133.232204 251.326824 135.617612 251.83174 137.986425 252.414811 140.3618 252.966543 140.780915 253.064044 141.343595 252.938686 141.521121 253.471846 141.727591 254.091286 141.190383 254.405456 140.813333 254.716531 136.205763 258.52139 131.588545 262.313868 126.969784 266.105186 121.00993 270.997645 115.052005 275.891653 109.081731 280.770957 107.817824 281.804003 106.796278 283.0247 106.007445 284.445428 105.398068 285.543088 104.612323 285.757822 103.436407 285.247877 101.437697 284.381201 98.8531507 284.152538 97.4993225 282.720203 96.2222936 281.369118 96.2392744 278.804688 95.6407033 276.78812 95.2022914 275.309742 94.8819729 273.74431 92.7640114 273.746244 91.9122729 273.747018 91.5853936 272.8432 91.2685484 272.132835 87.5366447 263.763228 83.1772255 255.754993 77.6171907 248.447063 76.8592321 247.451161 76.943364 246.832881 77.995784 246.10085 80.0516114 244.670448 81.9237381 242.960312 84.0382262 241.632055 88.4096092 238.885778 91.6266877 235.186157 93.8681455 230.569177 94.2888047 229.702888 94.818681 228.889993 95.308421 228.058527 95.5021559 227.729655 95.6812255 227.370216 96.1694218 227.306376M105.836519 85.5636805C106.86424 85.5636805 107.921291 85.4077563 108.914664 85.5934725 111.702593 86.1146384 113.055649 84.7078386 114.205323 82.368976 116.217926 78.2739352 118.540043 74.3332709 120.671897 70.2958795 121.194441 69.3065541 121.893353 68.7528879 122.939212 68.4004141 131.881116 65.3875567 140.808354 62.3309786 149.740996 59.28949 150.83278 58.9176708 152.002136 58.6975198 153.007859 58.1651335 155.343483 56.9285736 157.63897 57.6892359 159.959543 58.0653111 161.055186 58.2429021 161.206855 58.9439806 160.740271 59.7495243 157.496177 65.3511873 159.16878 70.6514485 161.654915 75.9168879 162.786836 78.3149475 162.85746 78.6399507 160.28372 79.2586176 155.013516 80.5253564 151.59344 83.5563986 149.974095 88.7015094 149.654163 89.7179183 148.874978 90.2263163 147.922127 90.5737602 142.070332 92.708722 136.240149 94.9044284 130.368286 96.9813539 127.924989 97.8457077 125.400648 96.9948957 122.931108 96.8776623 115.753271 96.5367959 108.586627 95.9548853 101.415351 95.4720233 99.1109878 95.316873 96.80701 95.1327045 94.4995589 95.0464238 93.5166056 95.0096675 92.9346293 94.5832942 92.5969441 93.720488 90.2184826 87.6413798 89.5427263 89.033477 95.2420804 87.0130402 98.7343241 85.7749326 102.221551 85.4425781 105.836519 85.5636805M62.3656682 187.328192C67.2298786 188.558175 71.5819653 189.674793 75.9433141 190.754268 78.1334438 191.296714 80.3042771 191.922732 82.2597638 193.050571 84.3360453 194.248053 86.4879682 194.619098 88.7213216 193.847989 92.6909556 192.477559 96.3483756 192.96932 99.8714934 195.224223 101.051269 195.979856 102.414745 196.448015 103.696019 197.042694 104.168007 197.262071 104.72374 197.483383 104.658133 198.090829 104.599858 198.631341 104.020583 198.629019 103.595679 198.735419 99.4261349 199.778525 95.2643097 200.853744 91.0824164 201.84539 89.7208697 202.168072 88.9783482 202.798733 88.8394149 204.275177 88.489766 207.987952 88.0220238 211.689506 87.6137141 215.396478 87.5110579 216.32738 88.0768253 216.958815 88.651469 217.585994 90.172403 219.245445 91.641623 220.95442 93.2096401 222.567055 94.0633082 223.445338 94.2246253 224.167309 93.5199245 225.262261 92.0240756 227.586808 90.5452075 229.939599 89.297123 232.402273 87.8526023 235.253402 85.2989304 236.873775 82.9293453 238.717782 80.9016904 240.295982 78.7590297 241.729479 76.7653364 243.348304 75.5211112 244.35891 74.7955704 244.17242 74.0777482 242.805471 73.4209023 241.554596 72.5853727 240.399674 71.8795141 239.173173 71.1944956 237.983042 70.364369 237.042081 69.1301779 236.31005 66.8744408 234.972893 66.2565734 232.425487 65.3064238 230.208888 63.2799267 225.47893 61.6050082 220.616649 60.1415771 215.676987 59.7294082 214.28489 59.9019171 213.198063 60.7389904 212.073707 61.4286401 211.147448 62.0013541 210.132973 62.6142045 209.150225 63.3987919 207.891998 63.1054882 206.981602 61.7489586 206.365257 60.934269 205.994985 60.1299993 205.585636 59.371269 205.112447 58.6148541 204.641192 58.193423 203.947078 58.3516527 202.991027 59.1381697 198.233985 59.7699304 193.446378 61.1573341 188.809665 61.4112734 187.960788 61.7512741 187.195096 62.3656682 187.328192M225.290859 398.219854L225.373061 398.219854C225.373061 397.252583 225.373061 396.285311 225.373447 395.31804 225.373833 394.575949 225.323662 393.83115 224.378144 393.720881 223.437256 393.610612 222.538821 393.723589 222.164859 394.796874 221.996209 395.280897 221.910919 395.794324 221.79437 396.295758 221.285719 398.489917 220.641223 400.663956 220.311642 402.885199 219.997113 405.006232 218.967462 405.736715 216.93479 405.397396 215.816377 405.210519 215.105502 405.544808 215.114764 406.924138 215.123254 408.245431 214.211697 409.122165 213.021116 409.375591 210.788534 409.850714 209.664332 411.434331 208.809892 413.281046 208.10905 414.795793 207.509707 416.370898 207.01881 417.96651 206.360806 420.104954 204.933652 420.950736 202.8072 420.830407 201.845859 420.77624 200.871396 420.777014 199.928193 420.609869 197.843035 420.239985 195.772542 419.788462 193.699734 419.352029 192.61644 419.12414 192.214691 419.467715 192.596758 420.564214 192.744953 420.989814 192.844908 421.432824 193.003524 421.853394 198.270641 435.813443 203.552423 449.76769 208.797542 463.736252 209.298088 465.068765 210.069554 465.901005 211.487446 466.17958 213.314805 466.538631 215.112062 467.060571 216.945596 467.373966 221.586356 468.166355 225.939986 469.492291 229.112297 473.303728 229.435703 473.692184 229.943582 473.922395 230.288213 474.296922 231.13069 475.21467 231.986673 475.344284 233.208901 474.913655 245.189585 470.689386 257.198056 466.544434 269.189161 462.350345 270.395565 461.928615 271.490051 461.386943 272.114479 460.044757 274.418457 455.089618 276.782639 450.160402 279.220919 445.26949 281.094204 441.511447 282.84322 437.736766 283.256547 433.481932 283.349555 432.525107 283.565287 431.579116 283.737796 430.630416 284.40622 426.958266 285.081205 423.287277 285.751172 419.61474 285.932171 418.620772 285.530036 417.773829 284.80218 417.218615 283.927672 416.551585 283.344924 417.454629 282.879111 417.960319 281.427258 419.536198 279.772022 419.795814 277.835059 419.083128 277.29978 418.886578 276.69349 418.893543 276.136599 418.744583 274.595211 418.333299 273.318954 418.532557 272.121426 419.78498 270.732093 421.238209 269.029002 421.770208 267.056534 420.700793 265.216053 419.702955 263.256322 419.991976 261.250665 420.194716 257.738739 420.549512 254.266563 421.355055 250.711413 421.245947 249.127187 421.197197 247.631339 420.777401 247.4569 418.926817 247.294811 417.212812 246.409883 417.138525 245.088473 417.371831 242.560658 417.81755 240.012003 418.151452 237.491907 418.635475 236.395491 418.84634 235.63213 418.5697 234.970653 417.715406 233.709833 416.088455 232.442066 414.46576 231.127988 412.882143 230.346488 411.940795 230.464967 411.395641 231.582995 410.828046 234.161752 409.519134 236.690725 408.110786 239.226258 406.717915 240.690461 405.913532 241.202585 403.367287 240.052525 401.481107 239.08964 399.902907 237.673678 400.71735 236.486956 401.329439 234.318052 402.447605 232.168059 403.607944 230.05743 404.83251 228.934771 405.483677 228.269435 405.504183 228.134361 404.00143 228.061421 403.186213 227.785484 402.307544 226.816424 402.427486 225.13533 402.634482 225.20827 401.666049 225.28121 400.53705 225.330995 399.767489 225.290859 398.992511 225.290859 398.219854M151.890603 269.170508C151.545586 271.325202 150.484289 273.896984 149.215365 276.340312 145.982077 282.565285 142.662343 288.74731 139.263107 294.883294 137.553069 297.970051 136.524191 301.263804 135.794019 304.666279 135.431634 306.355909 134.843869 306.942849 133.035034 306.287039 128.859316 304.773066 124.558171 303.682757 120.092237 303.483886 118.61607 303.418498 117.797135 302.758432 117.189302 301.42708 115.585008 297.914723 113.813608 294.479362 112.191175 290.974357 111.565975 289.624045 110.804929 288.531802 109.33185 288.057839 107.962585 287.61715 107.950621 286.932322 108.732507 285.770049 110.839277 282.639958 114.047093 280.753778 116.836951 278.424202 125.670796 271.04895 134.633154 263.828848 143.530676 256.529817 145.341826 255.044088 145.456832 255.02629 146.742737 256.907053 147.650435 258.234536 148.421129 259.696277 149.516773 260.845395 151.625086 263.057352 151.773282 265.774224 151.890603 269.170508M374.041376 194.307482C372.060804 194.109772 370.98793 196.015297 369.003113 196.436253 369.636803 195.391213 369.663046 193.530956 370.709677 193.756524 371.807636 193.993699 373.279558 192.518417 374.041376 194.307482"/>
    <path d="M225.290859,398.219854 C225.290859,398.992511 225.330995,399.767489 225.28121,400.53705 C225.20827,401.666049 225.13533,402.634482 226.816424,402.427486 C227.785484,402.307544 228.061421,403.186213 228.134361,404.00143 C228.269435,405.504183 228.934771,405.483677 230.05743,404.83251 C232.168059,403.607944 234.318052,402.447605 236.486956,401.329439 C237.673678,400.71735 239.08964,399.902907 240.052525,401.481107 C241.202585,403.367287 240.690461,405.913532 239.226258,406.717915 C236.690725,408.110786 234.161752,409.519134 231.582995,410.828046 C230.464967,411.395641 230.346488,411.940795 231.127988,412.882143 C232.442066,414.46576 233.709833,416.088455 234.970653,417.715406 C235.63213,418.5697 236.395491,418.84634 237.491907,418.635475 C240.012003,418.151452 242.560658,417.81755 245.088473,417.371831 C246.409883,417.138525 247.294811,417.212812 247.4569,418.926817 C247.631339,420.777401 249.127187,421.197197 250.711413,421.245947 C254.266563,421.355055 257.738739,420.549512 261.250665,420.194716 C263.256322,419.991976 265.216053,419.702955 267.056534,420.700793 C269.029002,421.770208 270.732093,421.238209 272.121426,419.78498 C273.318954,418.532557 274.595211,418.333299 276.136599,418.744583 C276.69349,418.893543 277.29978,418.886578 277.835059,419.083128 C279.772022,419.795814 281.427258,419.536198 282.879111,417.960319 C283.344924,417.454629 283.927672,416.551585 284.80218,417.218615 C285.530036,417.773829 285.932171,418.620772 285.751172,419.61474 C285.081205,423.287277 284.40622,426.958266 283.737796,430.630416 C283.565287,431.579116 283.349555,432.525107 283.256547,433.481932 C282.84322,437.736766 281.094204,441.511447 279.220919,445.26949 C276.782639,450.160402 274.418457,455.089618 272.114479,460.044757 C271.490051,461.386943 270.395565,461.928615 269.189161,462.350345 C257.198056,466.544434 245.189585,470.689386 233.208901,474.913655 C231.986673,475.344284 231.13069,475.21467 230.288213,474.296922 C229.943582,473.922395 229.435703,473.692184 229.112297,473.303728 C225.939986,469.492291 221.586356,468.166355 216.945596,467.373966 C215.112062,467.060571 213.314805,466.538631 211.487446,466.17958 C210.069554,465.901005 209.298088,465.068765 208.797542,463.736252 C203.552423,449.76769 198.270641,435.813443 193.003524,421.853394 C192.844908,421.432824 192.744953,420.989814 192.596758,420.564214 C192.214691,419.467715 192.61644,419.12414 193.699734,419.352029 C195.772542,419.788462 197.843035,420.239985 199.928193,420.609869 C200.871396,420.777014 201.845859,420.77624 202.8072,420.830407 C204.933652,420.950736 206.360806,420.104954 207.01881,417.96651 C207.509707,416.370898 208.10905,414.795793 208.809892,413.281046 C209.664332,411.434331 210.788534,409.850714 213.021116,409.375591 C214.211697,409.122165 215.123254,408.245431 215.114764,406.924138 C215.105502,405.544808 215.816377,405.210519 216.93479,405.397396 C218.967462,405.736715 219.997113,405.006232 220.311642,402.885199 C220.641223,400.663956 221.285719,398.489917 221.79437,396.295758 C221.910919,395.794324 221.996209,395.280897 222.164859,394.796874 C222.538821,393.723589 223.437256,393.610612 224.378144,393.720881 C225.323662,393.83115 225.373833,394.575949 225.373447,395.31804 C225.373061,396.285311 225.373061,397.252583 225.373061,398.219854 L225.290859,398.219854 Z"/>
  </g>
</svg>
